<svg version="1.1" viewBox="0.0 0.0 256.0 256.0" fill="none" stroke="none" stroke-linecap="square" stroke-miterlimit="10" xmlns:xlink="http://www.w3.org/1999/xlink" xmlns="http://www.w3.org/2000/svg"><clipPath id="p.0"><path d="m0 0l256.0 0l0 256.0l-256.0 0l0 -256.0z" clip-rule="nonzero"/></clipPath><g clip-path="url(#p.0)"><path fill="#000000" fill-opacity="0.0" d="m0 0l256.0 0l0 256.0l-256.0 0z" fill-rule="evenodd"/><g filter="url(#shadowFilter-p.1)"><use xlink:href="#p.1" transform="matrix(1.0 0.0 0.0 1.0 0.0 2.0)"/></g><defs><filter id="shadowFilter-p.1" filterUnits="userSpaceOnUse"><feGaussianBlur in="SourceAlpha" stdDeviation="2.0" result="blur"/><feComponentTransfer in="blur" color-interpolation-filters="sRGB"><feFuncR type="linear" slope="0" intercept="0.0"/><feFuncG type="linear" slope="0" intercept="0.0"/><feFuncB type="linear" slope="0" intercept="0.0"/><feFuncA type="linear" slope="0.5" intercept="0"/></feComponentTransfer></filter></defs><g id="p.1"><path fill="#f3f3f3" d="m90.23944 71.07549l156.77107 0l0 113.86361l-156.77107 0z" fill-rule="evenodd"/><path stroke="#595959" stroke-width="1.0" stroke-linejoin="round" stroke-linecap="butt" d="m90.23944 71.07549l156.77107 0l0 113.86361l-156.77107 0z" fill-rule="evenodd"/></g><g filter="url(#shadowFilter-p.2)"><use xlink:href="#p.2" transform="matrix(1.0 0.0 0.0 1.0 0.0 2.0)"/></g><defs><filter id="shadowFilter-p.2" filterUnits="userSpaceOnUse"><feGaussianBlur in="SourceAlpha" stdDeviation="2.0" result="blur"/><feComponentTransfer in="blur" color-interpolation-filters="sRGB"><feFuncR type="linear" slope="0" intercept="0.0"/><feFuncG type="linear" slope="0" intercept="0.0"/><feFuncB type="linear" slope="0" intercept="0.0"/><feFuncA type="linear" slope="0.5" intercept="0"/></feComponentTransfer></filter></defs><g id="p.2"><path fill="#f3f3f3" d="m90.23944 184.93462l78.38553 -72.517395l78.385544 72.517395z" fill-rule="evenodd"/><path stroke="#595959" stroke-width="1.0" stroke-linejoin="round" stroke-linecap="butt" d="m90.23944 184.93462l78.38553 -72.517395l78.385544 72.517395z" fill-rule="evenodd"/></g><g filter="url(#shadowFilter-p.3)"><use xlink:href="#p.3" transform="matrix(1.0 0.0 0.0 1.0 0.0 2.0)"/></g><defs><filter id="shadowFilter-p.3" filterUnits="userSpaceOnUse"><feGaussianBlur in="SourceAlpha" stdDeviation="2.0" result="blur"/><feComponentTransfer in="blur" color-interpolation-filters="sRGB"><feFuncR type="linear" slope="0" intercept="0.0"/><feFuncG type="linear" slope="0" intercept="0.0"/><feFuncB type="linear" slope="0" intercept="0.0"/><feFuncA type="linear" slope="0.5" intercept="0"/></feComponentTransfer></filter></defs><g id="p.3"><path fill="#f3f3f3" d="m247.01051 71.7305l-78.385544 60.02739l-78.38553 -60.02739z" fill-rule="evenodd"/><path stroke="#595959" stroke-width="1.0" stroke-linejoin="round" stroke-linecap="butt" d="m247.01051 71.7305l-78.385544 60.02739l-78.38553 -60.02739z" fill-rule="evenodd"/></g><path fill="#000000" fill-opacity="0.0" d="m85.64616 195.77942c-6.0707855 0 -10.992126 -0.8201904 -10.992126 -1.8319397l0 -64.11563c0 -1.0117645 -4.921341 -1.8319473 -10.992126 -1.8319473l0 0c6.0707855 0 10.992126 -0.8201904 10.992126 -1.8319473l0 -64.11563l0 0c0 -1.0117569 4.921341 -1.8319473 10.992126 -1.8319473z" fill-rule="evenodd"/><path fill="#000000" fill-opacity="0.0" d="m85.64616 195.77942c-6.0707855 0 -10.992126 -0.8201904 -10.992126 -1.8319397l0 -64.11563c0 -1.0117645 -4.921341 -1.8319473 -10.992126 -1.8319473l0 0c6.0707855 0 10.992126 -0.8201904 10.992126 -1.8319473l0 -64.11563l0 0c0 -1.0117569 4.921341 -1.8319473 10.992126 -1.8319473" fill-rule="evenodd"/><path stroke="#ff0000" stroke-width="4.0" stroke-linejoin="round" stroke-linecap="butt" d="m85.64616 195.77942c-6.0707855 0 -10.992126 -0.8201904 -10.992126 -1.8319397l0 -64.11563c0 -1.0117645 -4.921341 -1.8319473 -10.992126 -1.8319473l0 0c6.0707855 0 10.992126 -0.8201904 10.992126 -1.8319473l0 -64.11563l0 0c0 -1.0117569 4.921341 -1.8319473 10.992126 -1.8319473" fill-rule="evenodd"/><path fill="#000000" fill-opacity="0.0" d="m93.83462 66.879265l158.61417 0l0 119.37008l-158.61417 0z" fill-rule="evenodd"/><path fill="#ff0000" d="m112.11587 87.01801l0 1.921875q0 2.515625 -1.203125 3.984375q-0.9375 1.15625 -2.359375 1.15625q-0.6875 0 -1.296875 -0.28125q-0.609375 -0.265625 -1.03125 -0.765625q-0.265625 -0.296875 -0.59375 -0.96875q-0.3125 -0.6875 -0.453125 -1.25q-0.21875 -0.796875 -0.21875 -1.875l0 -1.921875q0 -2.53125 1.203125 -3.984375q0.9375 -1.15625 2.359375 -1.15625q0.703125 0 1.296875 0.28125q0.609375 0.265625 1.03125 0.765625q0.28125 0.3125 0.59375 0.984375q0.3125 0.671875 0.46875 1.234375q0.203125 0.796875 0.203125 1.875zm-0.78125 0.09375q0 -1.09375 -0.3125 -2.046875q-0.3125 -0.953125 -0.703125 -1.515625q-0.234375 -0.328125 -0.59375 -0.5625q-0.53125 -0.328125 -1.1875 -0.328125q-1.3125 0 -2.0625 1.34375q-0.734375 1.328125 -0.734375 3.109375l0 1.71875q0 1.109375 0.3125 2.0625q0.3125 0.953125 0.703125 1.53125q0.21875 0.3125 0.59375 0.546875q0.53125 0.328125 1.203125 0.328125q1.296875 0 2.03125 -1.34375q0.75 -1.34375 0.75 -3.125l0 -1.71875zm8.995605 -5.109375l0 11.015625l2.671875 0q0.265625 0 0.390625 0.109375q0.125 0.109375 0.125 0.28125q0 0.171875 -0.125 0.28125q-0.125 0.109375 -0.390625 0.109375l-6.125 0q-0.28125 0 -0.40625 -0.109375q-0.125 -0.109375 -0.125 -0.28125q0 -0.171875 0.125 -0.28125q0.125 -0.109375 0.40625 -0.109375l2.671875 0l0 -9.9375l-2.546875 0.796875q-0.1875 0.046875 -0.265625 0.046875q-0.140625 0 -0.265625 -0.109375q-0.109375 -0.125 -0.109375 -0.28125q0 -0.140625 0.09375 -0.25q0.078125 -0.078125 0.3125 -0.15625l3.5625 -1.125zm14.589363 5.015625l0 1.921875q0 2.515625 -1.203125 3.984375q-0.9375 1.15625 -2.359375 1.15625q-0.6875 0 -1.296875 -0.28125q-0.609375 -0.265625 -1.03125 -0.765625q-0.265625 -0.296875 -0.59375 -0.96875q-0.3125 -0.6875 -0.45313263 -1.25q-0.21875 -0.796875 -0.21875 -1.875l0 -1.921875q0 -2.53125 1.2031326 -3.984375q0.9375 -1.15625 2.359375 -1.15625q0.703125 0 1.296875 0.28125q0.609375 0.265625 1.03125 0.765625q0.28125 0.3125 0.59375 0.984375q0.3125 0.671875 0.46875 1.234375q0.203125 0.796875 0.203125 1.875zm-0.78125 0.09375q0 -1.09375 -0.3125 -2.046875q-0.3125 -0.953125 -0.703125 -1.515625q-0.234375 -0.328125 -0.59375 -0.5625q-0.53125 -0.328125 -1.1875 -0.328125q-1.3125 0 -2.0625 1.34375q-0.734375 1.328125 -0.734375 3.109375l0 1.71875q0 1.109375 0.3125 2.0625q0.3125 0.953125 0.703125 1.53125q0.21875 0.3125 0.59375 0.546875q0.53125 0.328125 1.203125 0.328125q1.296875 0 2.03125 -1.34375q0.75 -1.34375 0.75 -3.125l0 -1.71875zm12.183105 -0.09375l0 1.921875q0 2.515625 -1.203125 3.984375q-0.9375 1.15625 -2.359375 1.15625q-0.6875 0 -1.296875 -0.28125q-0.609375 -0.265625 -1.03125 -0.765625q-0.265625 -0.296875 -0.59375 -0.96875q-0.3125 -0.6875 -0.453125 -1.25q-0.21875 -0.796875 -0.21875 -1.875l0 -1.921875q0 -2.53125 1.203125 -3.984375q0.9375 -1.15625 2.359375 -1.15625q0.703125 0 1.296875 0.28125q0.609375 0.265625 1.03125 0.765625q0.28125 0.3125 0.59375 0.984375q0.3125 0.671875 0.46875 1.234375q0.203125 0.796875 0.203125 1.875zm-0.78125 0.09375q0 -1.09375 -0.3125 -2.046875q-0.3125 -0.953125 -0.703125 -1.515625q-0.234375 -0.328125 -0.59375 -0.5625q-0.53125 -0.328125 -1.1875 -0.328125q-1.3125 0 -2.0625 1.34375q-0.734375 1.328125 -0.734375 3.109375l0 1.71875q0 1.109375 0.3125 2.0625q0.3125 0.953125 0.703125 1.53125q0.21875 0.3125 0.59375 0.546875q0.53125 0.328125 1.203125 0.328125q1.296875 0 2.03125 -1.34375q0.75 -1.34375 0.75 -3.125l0 -1.71875zm8.995605 -5.109375l0 11.015625l2.671875 0q0.265625 0 0.390625 0.109375q0.125 0.109375 0.125 0.28125q0 0.171875 -0.125 0.28125q-0.125 0.109375 -0.390625 0.109375l-6.125 0q-0.28125 0 -0.40625 -0.109375q-0.125 -0.109375 -0.125 -0.28125q0 -0.171875 0.125 -0.28125q0.125 -0.109375 0.40625 -0.109375l2.671875 0l0 -9.9375l-2.546875 0.796875q-0.1875 0.046875 -0.265625 0.046875q-0.140625 0 -0.265625 -0.109375q-0.109375 -0.125 -0.109375 -0.28125q0 -0.140625 0.09375 -0.25q0.078125 -0.078125 0.3125 -0.15625l3.5625 -1.125zm14.589355 5.015625l0 1.921875q0 2.515625 -1.203125 3.984375q-0.9375 1.15625 -2.359375 1.15625q-0.6875 0 -1.296875 -0.28125q-0.609375 -0.265625 -1.03125 -0.765625q-0.265625 -0.296875 -0.59375 -0.96875q-0.3125 -0.6875 -0.453125 -1.25q-0.21875 -0.796875 -0.21875 -1.875l0 -1.921875q0 -2.53125 1.203125 -3.984375q0.9375 -1.15625 2.359375 -1.15625q0.703125 0 1.296875 0.28125q0.609375 0.265625 1.03125 0.765625q0.28125 0.3125 0.59375 0.984375q0.3125 0.671875 0.46875 1.234375q0.203125 0.796875 0.203125 1.875zm-0.78125 0.09375q0 -1.09375 -0.3125 -2.046875q-0.3125 -0.953125 -0.703125 -1.515625q-0.234375 -0.328125 -0.59375 -0.5625q-0.53125 -0.328125 -1.1875 -0.328125q-1.3125 0 -2.0625 1.34375q-0.734375 1.328125 -0.734375 3.109375l0 1.71875q0 1.109375 0.3125 2.0625q0.3125 0.953125 0.703125 1.53125q0.21875 0.3125 0.59375 0.546875q0.53125 0.328125 1.203125 0.328125q1.296875 0 2.03125 -1.34375q0.75 -1.34375 0.75 -3.125l0 -1.71875zm12.183105 -0.09375l0 1.921875q0 2.515625 -1.203125 3.984375q-0.9375 1.15625 -2.359375 1.15625q-0.6875 0 -1.296875 -0.28125q-0.609375 -0.265625 -1.03125 -0.765625q-0.265625 -0.296875 -0.59375 -0.96875q-0.3125 -0.6875 -0.453125 -1.25q-0.21875 -0.796875 -0.21875 -1.875l0 -1.921875q0 -2.53125 1.203125 -3.984375q0.9375 -1.15625 2.359375 -1.15625q0.703125 0 1.296875 0.28125q0.609375 0.265625 1.03125 0.765625q0.28125 0.3125 0.59375 0.984375q0.3125 0.671875 0.46875 1.234375q0.203125 0.796875 0.203125 1.875zm-0.78125 0.09375q0 -1.09375 -0.3125 -2.046875q-0.3125 -0.953125 -0.703125 -1.515625q-0.234375 -0.328125 -0.59375 -0.5625q-0.53125 -0.328125 -1.1875 -0.328125q-1.3125 0 -2.0625 1.34375q-0.734375 1.328125 -0.734375 3.109375l0 1.71875q0 1.109375 0.3125 2.0625q0.3125 0.953125 0.703125 1.53125q0.21875 0.3125 0.59375 0.546875q0.53125 0.328125 1.203125 0.328125q1.296875 0 2.03125 -1.34375q0.75 -1.34375 0.75 -3.125l0 -1.71875zm8.995605 -5.109375l0 11.015625l2.671875 0q0.265625 0 0.390625 0.109375q0.125 0.109375 0.125 0.28125q0 0.171875 -0.125 0.28125q-0.125 0.109375 -0.390625 0.109375l-6.125 0q-0.28125 0 -0.40625 -0.109375q-0.125 -0.109375 -0.125 -0.28125q0 -0.171875 0.125 -0.28125q0.125 -0.109375 0.40625 -0.109375l2.671875 0l0 -9.9375l-2.546875 0.796875q-0.1875 0.046875 -0.265625 0.046875q-0.140625 0 -0.265625 -0.109375q-0.109375 -0.125 -0.109375 -0.28125q0 -0.140625 0.09375 -0.25q0.078125 -0.078125 0.3125 -0.15625l3.5625 -1.125zm11.401855 0l0 11.015625l2.671875 0q0.265625 0 0.390625 0.109375q0.125 0.109375 0.125 0.28125q0 0.171875 -0.125 0.28125q-0.125 0.109375 -0.390625 0.109375l-6.125 0q-0.28125 0 -0.40625 -0.109375q-0.125 -0.109375 -0.125 -0.28125q0 -0.171875 0.125 -0.28125q0.125 -0.109375 0.40625 -0.109375l2.671875 0l0 -9.9375l-2.546875 0.796875q-0.1875 0.046875 -0.265625 0.046875q-0.140625 0 -0.265625 -0.109375q-0.109375 -0.125 -0.109375 -0.28125q0 -0.140625 0.09375 -0.25q0.078125 -0.078125 0.3125 -0.15625l3.5625 -1.125zm11.401855 0l0 11.015625l2.671875 0q0.265625 0 0.390625 0.109375q0.125 0.109375 0.125 0.28125q0 0.171875 -0.125 0.28125q-0.125 0.109375 -0.390625 0.109375l-6.125 0q-0.28125 0 -0.40625 -0.109375q-0.125 -0.109375 -0.125 -0.28125q0 -0.171875 0.125 -0.28125q0.125 -0.109375 0.40625 -0.109375l2.671875 0l0 -9.9375l-2.546875 0.796875q-0.1875 0.046875 -0.265625 0.046875q-0.140625 0 -0.265625 -0.109375q-0.109375 -0.125 -0.109375 -0.28125q0 -0.140625 0.09375 -0.25q0.078125 -0.078125 0.3125 -0.15625l3.5625 -1.125zm14.589355 5.015625l0 1.921875q0 2.515625 -1.203125 3.984375q-0.9375 1.15625 -2.359375 1.15625q-0.6875 0 -1.296875 -0.28125q-0.609375 -0.265625 -1.03125 -0.765625q-0.265625 -0.296875 -0.59375 -0.96875q-0.3125 -0.6875 -0.453125 -1.25q-0.21875 -0.796875 -0.21875 -1.875l0 -1.921875q0 -2.53125 1.203125 -3.984375q0.9375 -1.15625 2.359375 -1.15625q0.703125 0 1.296875 0.28125q0.609375 0.265625 1.03125 0.765625q0.28125 0.3125 0.59375 0.984375q0.3125 0.671875 0.46875 1.234375q0.203125 0.796875 0.203125 1.875zm-0.78125 0.09375q0 -1.09375 -0.3125 -2.046875q-0.3125 -0.953125 -0.703125 -1.515625q-0.234375 -0.328125 -0.59375 -0.5625q-0.53125 -0.328125 -1.1875 -0.328125q-1.3125 0 -2.0625 1.34375q-0.734375 1.328125 -0.734375 3.109375l0 1.71875q0 1.109375 0.3125 2.0625q0.3125 0.953125 0.703125 1.53125q0.21875 0.3125 0.59375 0.546875q0.53125 0.328125 1.203125 0.328125q1.296875 0 2.03125 -1.34375q0.75 -1.34375 0.75 -3.125l0 -1.71875zm8.995605 -5.109375l0 11.015625l2.671875 0q0.265625 0 0.390625 0.109375q0.125 0.109375 0.125 0.28125q0 0.171875 -0.125 0.28125q-0.125 0.109375 -0.390625 0.109375l-6.125 0q-0.28125 0 -0.40625 -0.109375q-0.125 -0.109375 -0.125 -0.28125q0 -0.171875 0.125 -0.28125q0.125 -0.109375 0.40625 -0.109375l2.671875 0l0 -9.9375l-2.546875 0.796875q-0.1875 0.046875 -0.265625 0.046875q-0.140625 0 -0.265625 -0.109375q-0.109375 -0.125 -0.109375 -0.28125q0 -0.140625 0.09375 -0.25q0.078125 -0.078125 0.3125 -0.15625l3.5625 -1.125z" fill-rule="nonzero"/><path fill="#ff0000" d="m108.92837 104.00239l0 11.015625l2.671875 0q0.265625 0 0.390625 0.109375q0.125 0.109375 0.125 0.28125q0 0.171875 -0.125 0.28125q-0.125 0.109375 -0.390625 0.109375l-6.125 0q-0.28125 0 -0.40625 -0.109375q-0.125 -0.109375 -0.125 -0.28125q0 -0.171875 0.125 -0.28125q0.125 -0.109375 0.40625 -0.109375l2.671875 0l0 -9.9375l-2.546875 0.796875q-0.1875 0.046875 -0.265625 0.046875q-0.140625 0 -0.265625 -0.109375q-0.109375 -0.125 -0.109375 -0.28125q0 -0.140625 0.09375 -0.25q0.078125 -0.078125 0.3125 -0.15625l3.5625 -1.125zm14.589355 5.015625l0 1.921875q0 2.515625 -1.203125 3.984375q-0.9375 1.15625 -2.359375 1.15625q-0.6875 0 -1.296875 -0.28125q-0.609375 -0.265625 -1.03125 -0.765625q-0.265625 -0.296875 -0.59375 -0.96875q-0.3125 -0.6875 -0.453125 -1.25q-0.21875 -0.796875 -0.21875 -1.875l0 -1.921875q0 -2.53125 1.203125 -3.984375q0.9375 -1.15625 2.359375 -1.15625q0.703125 0 1.296875 0.28125q0.609375 0.265625 1.03125 0.765625q0.28125 0.3125 0.59375 0.984375q0.3125 0.671875 0.46875 1.234375q0.203125 0.796875 0.203125 1.875zm-0.78125 0.09375q0 -1.09375 -0.3125 -2.046875q-0.3125 -0.953125 -0.703125 -1.515625q-0.234375 -0.328125 -0.59375 -0.5625q-0.53125 -0.328125 -1.1875 -0.328125q-1.3125 0 -2.0625 1.34375q-0.734375 1.328125 -0.734375 3.109375l0 1.71875q0 1.109375 0.3125 2.0625q0.3125 0.953125 0.703125 1.53125q0.21875 0.3125 0.59375 0.546875q0.53125 0.328125 1.203125 0.328125q1.296875 0 2.03125 -1.34375q0.75 -1.34375 0.75 -3.125l0 -1.71875zm8.995613 -5.109375l0 11.015625l2.671875 0q0.265625 0 0.390625 0.109375q0.125 0.109375 0.125 0.28125q0 0.171875 -0.125 0.28125q-0.125 0.109375 -0.390625 0.109375l-6.125 0q-0.28125763 0 -0.40625763 -0.109375q-0.125 -0.109375 -0.125 -0.28125q0 -0.171875 0.125 -0.28125q0.125 -0.109375 0.40625763 -0.109375l2.671875 0l0 -9.9375l-2.546875 0.796875q-0.1875 0.046875 -0.265625 0.046875q-0.14063263 0 -0.26563263 -0.109375q-0.109375 -0.125 -0.109375 -0.28125q0 -0.140625 0.09375 -0.25q0.078125 -0.078125 0.31250763 -0.15625l3.5625 -1.125zm14.589355 5.015625l0 1.921875q0 2.515625 -1.203125 3.984375q-0.9375 1.15625 -2.359375 1.15625q-0.6875 0 -1.296875 -0.28125q-0.609375 -0.265625 -1.03125 -0.765625q-0.265625 -0.296875 -0.59375 -0.96875q-0.3125 -0.6875 -0.453125 -1.25q-0.21875 -0.796875 -0.21875 -1.875l0 -1.921875q0 -2.53125 1.203125 -3.984375q0.9375 -1.15625 2.359375 -1.15625q0.703125 0 1.296875 0.28125q0.609375 0.265625 1.03125 0.765625q0.28125 0.3125 0.59375 0.984375q0.3125 0.671875 0.46875 1.234375q0.203125 0.796875 0.203125 1.875zm-0.78125 0.09375q0 -1.09375 -0.3125 -2.046875q-0.3125 -0.953125 -0.703125 -1.515625q-0.234375 -0.328125 -0.59375 -0.5625q-0.53125 -0.328125 -1.1875 -0.328125q-1.3125 0 -2.0625 1.34375q-0.734375 1.328125 -0.734375 3.109375l0 1.71875q0 1.109375 0.3125 2.0625q0.3125 0.953125 0.703125 1.53125q0.21875 0.3125 0.59375 0.546875q0.53125 0.328125 1.203125 0.328125q1.296875 0 2.03125 -1.34375q0.75 -1.34375 0.75 -3.125l0 -1.71875zm8.995605 -5.109375l0 11.015625l2.671875 0q0.265625 0 0.390625 0.109375q0.125 0.109375 0.125 0.28125q0 0.171875 -0.125 0.28125q-0.125 0.109375 -0.390625 0.109375l-6.125 0q-0.28125 0 -0.40625 -0.109375q-0.125 -0.109375 -0.125 -0.28125q0 -0.171875 0.125 -0.28125q0.125 -0.109375 0.40625 -0.109375l2.671875 0l0 -9.9375l-2.546875 0.796875q-0.1875 0.046875 -0.265625 0.046875q-0.140625 0 -0.265625 -0.109375q-0.109375 -0.125 -0.109375 -0.28125q0 -0.140625 0.09375 -0.25q0.078125 -0.078125 0.3125 -0.15625l3.5625 -1.125zm14.589355 5.015625l0 1.921875q0 2.515625 -1.203125 3.984375q-0.9375 1.15625 -2.359375 1.15625q-0.6875 0 -1.296875 -0.28125q-0.609375 -0.265625 -1.03125 -0.765625q-0.265625 -0.296875 -0.59375 -0.96875q-0.3125 -0.6875 -0.453125 -1.25q-0.21875 -0.796875 -0.21875 -1.875l0 -1.921875q0 -2.53125 1.203125 -3.984375q0.9375 -1.15625 2.359375 -1.15625q0.703125 0 1.296875 0.28125q0.609375 0.265625 1.03125 0.765625q0.28125 0.3125 0.59375 0.984375q0.3125 0.671875 0.46875 1.234375q0.203125 0.796875 0.203125 1.875zm-0.78125 0.09375q0 -1.09375 -0.3125 -2.046875q-0.3125 -0.953125 -0.703125 -1.515625q-0.234375 -0.328125 -0.59375 -0.5625q-0.53125 -0.328125 -1.1875 -0.328125q-1.3125 0 -2.0625 1.34375q-0.734375 1.328125 -0.734375 3.109375l0 1.71875q0 1.109375 0.3125 2.0625q0.3125 0.953125 0.703125 1.53125q0.21875 0.3125 0.59375 0.546875q0.53125 0.328125 1.203125 0.328125q1.296875 0 2.03125 -1.34375q0.75 -1.34375 0.75 -3.125l0 -1.71875zm8.995605 -5.109375l0 11.015625l2.671875 0q0.265625 0 0.390625 0.109375q0.125 0.109375 0.125 0.28125q0 0.171875 -0.125 0.28125q-0.125 0.109375 -0.390625 0.109375l-6.125 0q-0.28125 0 -0.40625 -0.109375q-0.125 -0.109375 -0.125 -0.28125q0 -0.171875 0.125 -0.28125q0.125 -0.109375 0.40625 -0.109375l2.671875 0l0 -9.9375l-2.546875 0.796875q-0.1875 0.046875 -0.265625 0.046875q-0.140625 0 -0.265625 -0.109375q-0.109375 -0.125 -0.109375 -0.28125q0 -0.140625 0.09375 -0.25q0.078125 -0.078125 0.3125 -0.15625l3.5625 -1.125zm14.589355 5.015625l0 1.921875q0 2.515625 -1.203125 3.984375q-0.9375 1.15625 -2.359375 1.15625q-0.6875 0 -1.296875 -0.28125q-0.609375 -0.265625 -1.03125 -0.765625q-0.265625 -0.296875 -0.59375 -0.96875q-0.3125 -0.6875 -0.453125 -1.25q-0.21875 -0.796875 -0.21875 -1.875l0 -1.921875q0 -2.53125 1.203125 -3.984375q0.9375 -1.15625 2.359375 -1.15625q0.703125 0 1.296875 0.28125q0.609375 0.265625 1.03125 0.765625q0.28125 0.3125 0.59375 0.984375q0.3125 0.671875 0.46875 1.234375q0.203125 0.796875 0.203125 1.875zm-0.78125 0.09375q0 -1.09375 -0.3125 -2.046875q-0.3125 -0.953125 -0.703125 -1.515625q-0.234375 -0.328125 -0.59375 -0.5625q-0.53125 -0.328125 -1.1875 -0.328125q-1.3125 0 -2.0625 1.34375q-0.734375 1.328125 -0.734375 3.109375l0 1.71875q0 1.109375 0.3125 2.0625q0.3125 0.953125 0.703125 1.53125q0.21875 0.3125 0.59375 0.546875q0.53125 0.328125 1.203125 0.328125q1.296875 0 2.03125 -1.34375q0.75 -1.34375 0.75 -3.125l0 -1.71875zm8.995605 -5.109375l0 11.015625l2.671875 0q0.265625 0 0.390625 0.109375q0.125 0.109375 0.125 0.28125q0 0.171875 -0.125 0.28125q-0.125 0.109375 -0.390625 0.109375l-6.125 0q-0.28125 0 -0.40625 -0.109375q-0.125 -0.109375 -0.125 -0.28125q0 -0.171875 0.125 -0.28125q0.125 -0.109375 0.40625 -0.109375l2.671875 0l0 -9.9375l-2.546875 0.796875q-0.1875 0.046875 -0.265625 0.046875q-0.140625 0 -0.265625 -0.109375q-0.109375 -0.125 -0.109375 -0.28125q0 -0.140625 0.09375 -0.25q0.078125 -0.078125 0.3125 -0.15625l3.5625 -1.125zm11.401855 0l0 11.015625l2.671875 0q0.265625 0 0.390625 0.109375q0.125 0.109375 0.125 0.28125q0 0.171875 -0.125 0.28125q-0.125 0.109375 -0.390625 0.109375l-6.125 0q-0.28125 0 -0.40625 -0.109375q-0.125 -0.109375 -0.125 -0.28125q0 -0.171875 0.125 -0.28125q0.125 -0.109375 0.40625 -0.109375l2.671875 0l0 -9.9375l-2.546875 0.796875q-0.1875 0.046875 -0.265625 0.046875q-0.140625 0 -0.265625 -0.109375q-0.109375 -0.125 -0.109375 -0.28125q0 -0.140625 0.09375 -0.25q0.078125 -0.078125 0.3125 -0.15625l3.5625 -1.125zm11.401855 0l0 11.015625l2.671875 0q0.265625 0 0.390625 0.109375q0.125 0.109375 0.125 0.28125q0 0.171875 -0.125 0.28125q-0.125 0.109375 -0.390625 0.109375l-6.125 0q-0.28125 0 -0.40625 -0.109375q-0.125 -0.109375 -0.125 -0.28125q0 -0.171875 0.125 -0.28125q0.125 -0.109375 0.40625 -0.109375l2.671875 0l0 -9.9375l-2.546875 0.796875q-0.1875 0.046875 -0.265625 0.046875q-0.140625 0 -0.265625 -0.109375q-0.109375 -0.125 -0.109375 -0.28125q0 -0.140625 0.09375 -0.25q0.078125 -0.078125 0.3125 -0.15625l3.5625 -1.125zm14.589355 5.015625l0 1.921875q0 2.515625 -1.203125 3.984375q-0.9375 1.15625 -2.359375 1.15625q-0.6875 0 -1.296875 -0.28125q-0.609375 -0.265625 -1.03125 -0.765625q-0.265625 -0.296875 -0.59375 -0.96875q-0.3125 -0.6875 -0.453125 -1.25q-0.21875 -0.796875 -0.21875 -1.875l0 -1.921875q0 -2.53125 1.203125 -3.984375q0.9375 -1.15625 2.359375 -1.15625q0.703125 0 1.296875 0.28125q0.609375 0.265625 1.03125 0.765625q0.28125 0.3125 0.59375 0.984375q0.3125 0.671875 0.46875 1.234375q0.203125 0.796875 0.203125 1.875zm-0.78125 0.09375q0 -1.09375 -0.3125 -2.046875q-0.3125 -0.953125 -0.703125 -1.515625q-0.234375 -0.328125 -0.59375 -0.5625q-0.53125 -0.328125 -1.1875 -0.328125q-1.3125 0 -2.0625 1.34375q-0.734375 1.328125 -0.734375 3.109375l0 1.71875q0 1.109375 0.3125 2.0625q0.3125 0.953125 0.703125 1.53125q0.21875 0.3125 0.59375 0.546875q0.53125 0.328125 1.203125 0.328125q1.296875 0 2.03125 -1.34375q0.75 -1.34375 0.75 -3.125l0 -1.71875z" fill-rule="nonzero"/><path fill="#ff0000" d="m108.92837 126.00239l0 11.015633l2.671875 0q0.265625 0 0.390625 0.109375q0.125 0.109375 0.125 0.28125q0 0.171875 -0.125 0.28125q-0.125 0.109375 -0.390625 0.109375l-6.125 0q-0.28125 0 -0.40625 -0.109375q-0.125 -0.109375 -0.125 -0.28125q0 -0.171875 0.125 -0.28125q0.125 -0.109375 0.40625 -0.109375l2.671875 0l0 -9.937508l-2.546875 0.796875q-0.1875 0.046875 -0.265625 0.046875q-0.140625 0 -0.265625 -0.109375q-0.109375 -0.125 -0.109375 -0.28125q0 -0.140625 0.09375 -0.25q0.078125 -0.078125 0.3125 -0.15625l3.5625 -1.125zm14.589355 5.0156326l0 1.921875q0 2.515625 -1.203125 3.984375q-0.9375 1.15625 -2.359375 1.15625q-0.6875 0 -1.296875 -0.28125q-0.609375 -0.265625 -1.03125 -0.765625q-0.265625 -0.296875 -0.59375 -0.96875q-0.3125 -0.6875 -0.453125 -1.25q-0.21875 -0.796875 -0.21875 -1.875l0 -1.921875q0 -2.53125 1.203125 -3.9843826q0.9375 -1.15625 2.359375 -1.15625q0.703125 0 1.296875 0.28125q0.609375 0.265625 1.03125 0.765625q0.28125 0.3125 0.59375 0.984375q0.3125 0.6718826 0.46875 1.2343826q0.203125 0.796875 0.203125 1.875zm-0.78125 0.09375q0 -1.09375 -0.3125 -2.046875q-0.3125 -0.953125 -0.703125 -1.5156326q-0.234375 -0.328125 -0.59375 -0.5625q-0.53125 -0.328125 -1.1875 -0.328125q-1.3125 0 -2.0625 1.3437576q-0.734375 1.328125 -0.734375 3.109375l0 1.71875q0 1.109375 0.3125 2.0625q0.3125 0.953125 0.703125 1.53125q0.21875 0.3125 0.59375 0.546875q0.53125 0.328125 1.203125 0.328125q1.296875 0 2.03125 -1.34375q0.75 -1.34375 0.75 -3.125l0 -1.71875zm8.995613 -5.1093826l0 11.015633l2.671875 0q0.265625 0 0.390625 0.109375q0.125 0.109375 0.125 0.28125q0 0.171875 -0.125 0.28125q-0.125 0.109375 -0.390625 0.109375l-6.125 0q-0.28125763 0 -0.40625763 -0.109375q-0.125 -0.109375 -0.125 -0.28125q0 -0.171875 0.125 -0.28125q0.125 -0.109375 0.40625763 -0.109375l2.671875 0l0 -9.937508l-2.546875 0.796875q-0.1875 0.046875 -0.265625 0.046875q-0.14063263 0 -0.26563263 -0.109375q-0.109375 -0.125 -0.109375 -0.28125q0 -0.140625 0.09375 -0.25q0.078125 -0.078125 0.31250763 -0.15625l3.5625 -1.125zm11.401855 0l0 11.015633l2.671875 0q0.265625 0 0.390625 0.109375q0.125 0.109375 0.125 0.28125q0 0.171875 -0.125 0.28125q-0.125 0.109375 -0.390625 0.109375l-6.125 0q-0.28125 0 -0.40625 -0.109375q-0.125 -0.109375 -0.125 -0.28125q0 -0.171875 0.125 -0.28125q0.125 -0.109375 0.40625 -0.109375l2.671875 0l0 -9.937508l-2.546875 0.796875q-0.1875 0.046875 -0.265625 0.046875q-0.140625 0 -0.265625 -0.109375q-0.109375 -0.125 -0.109375 -0.28125q0 -0.140625 0.09375 -0.25q0.078125 -0.078125 0.3125 -0.15625l3.5625 -1.125zm11.401855 0l0 11.015633l2.671875 0q0.265625 0 0.390625 0.109375q0.125 0.109375 0.125 0.28125q0 0.171875 -0.125 0.28125q-0.125 0.109375 -0.390625 0.109375l-6.125 0q-0.28125 0 -0.40625 -0.109375q-0.125 -0.109375 -0.125 -0.28125q0 -0.171875 0.125 -0.28125q0.125 -0.109375 0.40625 -0.109375l2.671875 0l0 -9.937508l-2.546875 0.796875q-0.1875 0.046875 -0.265625 0.046875q-0.140625 0 -0.265625 -0.109375q-0.109375 -0.125 -0.109375 -0.28125q0 -0.140625 0.09375 -0.25q0.078125 -0.078125 0.3125 -0.15625l3.5625 -1.125zm14.589355 5.0156326l0 1.921875q0 2.515625 -1.203125 3.984375q-0.9375 1.15625 -2.359375 1.15625q-0.6875 0 -1.296875 -0.28125q-0.609375 -0.265625 -1.03125 -0.765625q-0.265625 -0.296875 -0.59375 -0.96875q-0.3125 -0.6875 -0.453125 -1.25q-0.21875 -0.796875 -0.21875 -1.875l0 -1.921875q0 -2.53125 1.203125 -3.9843826q0.9375 -1.15625 2.359375 -1.15625q0.703125 0 1.296875 0.28125q0.609375 0.265625 1.03125 0.765625q0.28125 0.3125 0.59375 0.984375q0.3125 0.6718826 0.46875 1.2343826q0.203125 0.796875 0.203125 1.875zm-0.78125 0.09375q0 -1.09375 -0.3125 -2.046875q-0.3125 -0.953125 -0.703125 -1.5156326q-0.234375 -0.328125 -0.59375 -0.5625q-0.53125 -0.328125 -1.1875 -0.328125q-1.3125 0 -2.0625 1.3437576q-0.734375 1.328125 -0.734375 3.109375l0 1.71875q0 1.109375 0.3125 2.0625q0.3125 0.953125 0.703125 1.53125q0.21875 0.3125 0.59375 0.546875q0.53125 0.328125 1.203125 0.328125q1.296875 0 2.03125 -1.34375q0.75 -1.34375 0.75 -3.125l0 -1.71875zm8.995605 -5.1093826l0 11.015633l2.671875 0q0.265625 0 0.390625 0.109375q0.125 0.109375 0.125 0.28125q0 0.171875 -0.125 0.28125q-0.125 0.109375 -0.390625 0.109375l-6.125 0q-0.28125 0 -0.40625 -0.109375q-0.125 -0.109375 -0.125 -0.28125q0 -0.171875 0.125 -0.28125q0.125 -0.109375 0.40625 -0.109375l2.671875 0l0 -9.937508l-2.546875 0.796875q-0.1875 0.046875 -0.265625 0.046875q-0.140625 0 -0.265625 -0.109375q-0.109375 -0.125 -0.109375 -0.28125q0 -0.140625 0.09375 -0.25q0.078125 -0.078125 0.3125 -0.15625l3.5625 -1.125zm14.589355 5.0156326l0 1.921875q0 2.515625 -1.203125 3.984375q-0.9375 1.15625 -2.359375 1.15625q-0.6875 0 -1.296875 -0.28125q-0.609375 -0.265625 -1.03125 -0.765625q-0.265625 -0.296875 -0.59375 -0.96875q-0.3125 -0.6875 -0.453125 -1.25q-0.21875 -0.796875 -0.21875 -1.875l0 -1.921875q0 -2.53125 1.203125 -3.9843826q0.9375 -1.15625 2.359375 -1.15625q0.703125 0 1.296875 0.28125q0.609375 0.265625 1.03125 0.765625q0.28125 0.3125 0.59375 0.984375q0.3125 0.6718826 0.46875 1.2343826q0.203125 0.796875 0.203125 1.875zm-0.78125 0.09375q0 -1.09375 -0.3125 -2.046875q-0.3125 -0.953125 -0.703125 -1.5156326q-0.234375 -0.328125 -0.59375 -0.5625q-0.53125 -0.328125 -1.1875 -0.328125q-1.3125 0 -2.0625 1.3437576q-0.734375 1.328125 -0.734375 3.109375l0 1.71875q0 1.109375 0.3125 2.0625q0.3125 0.953125 0.703125 1.53125q0.21875 0.3125 0.59375 0.546875q0.53125 0.328125 1.203125 0.328125q1.296875 0 2.03125 -1.34375q0.75 -1.34375 0.75 -3.125l0 -1.71875zm8.995605 -5.1093826l0 11.015633l2.671875 0q0.265625 0 0.390625 0.109375q0.125 0.109375 0.125 0.28125q0 0.171875 -0.125 0.28125q-0.125 0.109375 -0.390625 0.109375l-6.125 0q-0.28125 0 -0.40625 -0.109375q-0.125 -0.109375 -0.125 -0.28125q0 -0.171875 0.125 -0.28125q0.125 -0.109375 0.40625 -0.109375l2.671875 0l0 -9.937508l-2.546875 0.796875q-0.1875 0.046875 -0.265625 0.046875q-0.140625 0 -0.265625 -0.109375q-0.109375 -0.125 -0.109375 -0.28125q0 -0.140625 0.09375 -0.25q0.078125 -0.078125 0.3125 -0.15625l3.5625 -1.125zm14.589355 5.0156326l0 1.921875q0 2.515625 -1.203125 3.984375q-0.9375 1.15625 -2.359375 1.15625q-0.6875 0 -1.296875 -0.28125q-0.609375 -0.265625 -1.03125 -0.765625q-0.265625 -0.296875 -0.59375 -0.96875q-0.3125 -0.6875 -0.453125 -1.25q-0.21875 -0.796875 -0.21875 -1.875l0 -1.921875q0 -2.53125 1.203125 -3.9843826q0.9375 -1.15625 2.359375 -1.15625q0.703125 0 1.296875 0.28125q0.609375 0.265625 1.03125 0.765625q0.28125 0.3125 0.59375 0.984375q0.3125 0.6718826 0.46875 1.2343826q0.203125 0.796875 0.203125 1.875zm-0.78125 0.09375q0 -1.09375 -0.3125 -2.046875q-0.3125 -0.953125 -0.703125 -1.5156326q-0.234375 -0.328125 -0.59375 -0.5625q-0.53125 -0.328125 -1.1875 -0.328125q-1.3125 0 -2.0625 1.3437576q-0.734375 1.328125 -0.734375 3.109375l0 1.71875q0 1.109375 0.3125 2.0625q0.3125 0.953125 0.703125 1.53125q0.21875 0.3125 0.59375 0.546875q0.53125 0.328125 1.203125 0.328125q1.296875 0 2.03125 -1.34375q0.75 -1.34375 0.75 -3.125l0 -1.71875zm8.995605 -5.1093826l0 11.015633l2.671875 0q0.265625 0 0.390625 0.109375q0.125 0.109375 0.125 0.28125q0 0.171875 -0.125 0.28125q-0.125 0.109375 -0.390625 0.109375l-6.125 0q-0.28125 0 -0.40625 -0.109375q-0.125 -0.109375 -0.125 -0.28125q0 -0.171875 0.125 -0.28125q0.125 -0.109375 0.40625 -0.109375l2.671875 0l0 -9.937508l-2.546875 0.796875q-0.1875 0.046875 -0.265625 0.046875q-0.140625 0 -0.265625 -0.109375q-0.109375 -0.125 -0.109375 -0.28125q0 -0.140625 0.09375 -0.25q0.078125 -0.078125 0.3125 -0.15625l3.5625 -1.125zm11.401855 0l0 11.015633l2.671875 0q0.265625 0 0.390625 0.109375q0.125 0.109375 0.125 0.28125q0 0.171875 -0.125 0.28125q-0.125 0.109375 -0.390625 0.109375l-6.125 0q-0.28125 0 -0.40625 -0.109375q-0.125 -0.109375 -0.125 -0.28125q0 -0.171875 0.125 -0.28125q0.125 -0.109375 0.40625 -0.109375l2.671875 0l0 -9.937508l-2.546875 0.796875q-0.1875 0.046875 -0.265625 0.046875q-0.140625 0 -0.265625 -0.109375q-0.109375 -0.125 -0.109375 -0.28125q0 -0.140625 0.09375 -0.25q0.078125 -0.078125 0.3125 -0.15625l3.5625 -1.125z" fill-rule="nonzero"/><path fill="#ff0000" d="m112.11587 153.01802l0 1.921875q0 2.515625 -1.203125 3.984375q-0.9375 1.15625 -2.359375 1.15625q-0.6875 0 -1.296875 -0.28125q-0.609375 -0.265625 -1.03125 -0.765625q-0.265625 -0.296875 -0.59375 -0.96875q-0.3125 -0.6875 -0.453125 -1.25q-0.21875 -0.796875 -0.21875 -1.875l0 -1.921875q0 -2.53125 1.203125 -3.984375q0.9375 -1.15625 2.359375 -1.15625q0.703125 0 1.296875 0.28125q0.609375 0.265625 1.03125 0.765625q0.28125 0.3125 0.59375 0.984375q0.3125 0.671875 0.46875 1.234375q0.203125 0.796875 0.203125 1.875zm-0.78125 0.09375q0 -1.09375 -0.3125 -2.046875q-0.3125 -0.953125 -0.703125 -1.515625q-0.234375 -0.328125 -0.59375 -0.5625q-0.53125 -0.328125 -1.1875 -0.328125q-1.3125 0 -2.0625 1.34375q-0.734375 1.328125 -0.734375 3.109375l0 1.71875q0 1.109375 0.3125 2.0625q0.3125 0.953125 0.703125 1.53125q0.21875 0.3125 0.59375 0.546875q0.53125 0.328125 1.203125 0.328125q1.296875 0 2.03125 -1.34375q0.75 -1.34375 0.75 -3.125l0 -1.71875zm12.183105 -0.09375l0 1.921875q0 2.515625 -1.203125 3.984375q-0.9375 1.15625 -2.359375 1.15625q-0.6875 0 -1.296875 -0.28125q-0.609375 -0.265625 -1.03125 -0.765625q-0.265625 -0.296875 -0.59375 -0.96875q-0.3125 -0.6875 -0.453125 -1.25q-0.21875 -0.796875 -0.21875 -1.875l0 -1.921875q0 -2.53125 1.203125 -3.984375q0.9375 -1.15625 2.359375 -1.15625q0.703125 0 1.296875 0.28125q0.609375 0.265625 1.03125 0.765625q0.28125 0.3125 0.59375 0.984375q0.3125 0.671875 0.46875 1.234375q0.203125 0.796875 0.203125 1.875zm-0.78125 0.09375q0 -1.09375 -0.3125 -2.046875q-0.3125 -0.953125 -0.703125 -1.515625q-0.234375 -0.328125 -0.59375 -0.5625q-0.53125 -0.328125 -1.1875 -0.328125q-1.3125 0 -2.0625 1.34375q-0.734375 1.328125 -0.734375 3.109375l0 1.71875q0 1.109375 0.3125 2.0625q0.3125 0.953125 0.703125 1.53125q0.21875 0.3125 0.59375 0.546875q0.53125 0.328125 1.203125 0.328125q1.296875 0 2.03125 -1.34375q0.75 -1.34375 0.75 -3.125l0 -1.71875zm12.183113 -0.09375l0 1.921875q0 2.515625 -1.203125 3.984375q-0.9375 1.15625 -2.359375 1.15625q-0.6875 0 -1.296875 -0.28125q-0.609375 -0.265625 -1.03125 -0.765625q-0.265625 -0.296875 -0.59375 -0.96875q-0.3125 -0.6875 -0.45313263 -1.25q-0.21875 -0.796875 -0.21875 -1.875l0 -1.921875q0 -2.53125 1.2031326 -3.984375q0.9375 -1.15625 2.359375 -1.15625q0.703125 0 1.296875 0.28125q0.609375 0.265625 1.03125 0.765625q0.28125 0.3125 0.59375 0.984375q0.3125 0.671875 0.46875 1.234375q0.203125 0.796875 0.203125 1.875zm-0.78125 0.09375q0 -1.09375 -0.3125 -2.046875q-0.3125 -0.953125 -0.703125 -1.515625q-0.234375 -0.328125 -0.59375 -0.5625q-0.53125 -0.328125 -1.1875 -0.328125q-1.3125 0 -2.0625 1.34375q-0.734375 1.328125 -0.734375 3.109375l0 1.71875q0 1.109375 0.3125 2.0625q0.3125 0.953125 0.703125 1.53125q0.21875 0.3125 0.59375 0.546875q0.53125 0.328125 1.203125 0.328125q1.296875 0 2.03125 -1.34375q0.75 -1.34375 0.75 -3.125l0 -1.71875zm12.183105 -0.09375l0 1.921875q0 2.515625 -1.203125 3.984375q-0.9375 1.15625 -2.359375 1.15625q-0.6875 0 -1.296875 -0.28125q-0.609375 -0.265625 -1.03125 -0.765625q-0.265625 -0.296875 -0.59375 -0.96875q-0.3125 -0.6875 -0.453125 -1.25q-0.21875 -0.796875 -0.21875 -1.875l0 -1.921875q0 -2.53125 1.203125 -3.984375q0.9375 -1.15625 2.359375 -1.15625q0.703125 0 1.296875 0.28125q0.609375 0.265625 1.03125 0.765625q0.28125 0.3125 0.59375 0.984375q0.3125 0.671875 0.46875 1.234375q0.203125 0.796875 0.203125 1.875zm-0.78125 0.09375q0 -1.09375 -0.3125 -2.046875q-0.3125 -0.953125 -0.703125 -1.515625q-0.234375 -0.328125 -0.59375 -0.5625q-0.53125 -0.328125 -1.1875 -0.328125q-1.3125 0 -2.0625 1.34375q-0.734375 1.328125 -0.734375 3.109375l0 1.71875q0 1.109375 0.3125 2.0625q0.3125 0.953125 0.703125 1.53125q0.21875 0.3125 0.59375 0.546875q0.53125 0.328125 1.203125 0.328125q1.296875 0 2.03125 -1.34375q0.75 -1.34375 0.75 -3.125l0 -1.71875zm12.183105 -0.09375l0 1.921875q0 2.515625 -1.203125 3.984375q-0.9375 1.15625 -2.359375 1.15625q-0.6875 0 -1.296875 -0.28125q-0.609375 -0.265625 -1.03125 -0.765625q-0.265625 -0.296875 -0.59375 -0.96875q-0.3125 -0.6875 -0.453125 -1.25q-0.21875 -0.796875 -0.21875 -1.875l0 -1.921875q0 -2.53125 1.203125 -3.984375q0.9375 -1.15625 2.359375 -1.15625q0.703125 0 1.296875 0.28125q0.609375 0.265625 1.03125 0.765625q0.28125 0.3125 0.59375 0.984375q0.3125 0.671875 0.46875 1.234375q0.203125 0.796875 0.203125 1.875zm-0.78125 0.09375q0 -1.09375 -0.3125 -2.046875q-0.3125 -0.953125 -0.703125 -1.515625q-0.234375 -0.328125 -0.59375 -0.5625q-0.53125 -0.328125 -1.1875 -0.328125q-1.3125 0 -2.0625 1.34375q-0.734375 1.328125 -0.734375 3.109375l0 1.71875q0 1.109375 0.3125 2.0625q0.3125 0.953125 0.703125 1.53125q0.21875 0.3125 0.59375 0.546875q0.53125 0.328125 1.203125 0.328125q1.296875 0 2.03125 -1.34375q0.75 -1.34375 0.75 -3.125l0 -1.71875zm12.183105 -0.09375l0 1.921875q0 2.515625 -1.203125 3.984375q-0.9375 1.15625 -2.359375 1.15625q-0.6875 0 -1.296875 -0.28125q-0.609375 -0.265625 -1.03125 -0.765625q-0.265625 -0.296875 -0.59375 -0.96875q-0.3125 -0.6875 -0.453125 -1.25q-0.21875 -0.796875 -0.21875 -1.875l0 -1.921875q0 -2.53125 1.203125 -3.984375q0.9375 -1.15625 2.359375 -1.15625q0.703125 0 1.296875 0.28125q0.609375 0.265625 1.03125 0.765625q0.28125 0.3125 0.59375 0.984375q0.3125 0.671875 0.46875 1.234375q0.203125 0.796875 0.203125 1.875zm-0.78125 0.09375q0 -1.09375 -0.3125 -2.046875q-0.3125 -0.953125 -0.703125 -1.515625q-0.234375 -0.328125 -0.59375 -0.5625q-0.53125 -0.328125 -1.1875 -0.328125q-1.3125 0 -2.0625 1.34375q-0.734375 1.328125 -0.734375 3.109375l0 1.71875q0 1.109375 0.3125 2.0625q0.3125 0.953125 0.703125 1.53125q0.21875 0.3125 0.59375 0.546875q0.53125 0.328125 1.203125 0.328125q1.296875 0 2.03125 -1.34375q0.75 -1.34375 0.75 -3.125l0 -1.71875zm12.183105 -0.09375l0 1.921875q0 2.515625 -1.203125 3.984375q-0.9375 1.15625 -2.359375 1.15625q-0.6875 0 -1.296875 -0.28125q-0.609375 -0.265625 -1.03125 -0.765625q-0.265625 -0.296875 -0.59375 -0.96875q-0.3125 -0.6875 -0.453125 -1.25q-0.21875 -0.796875 -0.21875 -1.875l0 -1.921875q0 -2.53125 1.203125 -3.984375q0.9375 -1.15625 2.359375 -1.15625q0.703125 0 1.296875 0.28125q0.609375 0.265625 1.03125 0.765625q0.28125 0.3125 0.59375 0.984375q0.3125 0.671875 0.46875 1.234375q0.203125 0.796875 0.203125 1.875zm-0.78125 0.09375q0 -1.09375 -0.3125 -2.046875q-0.3125 -0.953125 -0.703125 -1.515625q-0.234375 -0.328125 -0.59375 -0.5625q-0.53125 -0.328125 -1.1875 -0.328125q-1.3125 0 -2.0625 1.34375q-0.734375 1.328125 -0.734375 3.109375l0 1.71875q0 1.109375 0.3125 2.0625q0.3125 0.953125 0.703125 1.53125q0.21875 0.3125 0.59375 0.546875q0.53125 0.328125 1.203125 0.328125q1.296875 0 2.03125 -1.34375q0.75 -1.34375 0.75 -3.125l0 -1.71875zm8.995605 -5.109375l0 11.015625l2.671875 0q0.265625 0 0.390625 0.109375q0.125 0.109375 0.125 0.28125q0 0.171875 -0.125 0.28125q-0.125 0.109375 -0.390625 0.109375l-6.125 0q-0.28125 0 -0.40625 -0.109375q-0.125 -0.109375 -0.125 -0.28125q0 -0.171875 0.125 -0.28125q0.125 -0.109375 0.40625 -0.109375l2.671875 0l0 -9.9375l-2.546875 0.796875q-0.1875 0.046875 -0.265625 0.046875q-0.140625 0 -0.265625 -0.109375q-0.109375 -0.125 -0.109375 -0.28125q0 -0.140625 0.09375 -0.25q0.078125 -0.078125 0.3125 -0.15625l3.5625 -1.125zm11.401855 0l0 11.015625l2.671875 0q0.265625 0 0.390625 0.109375q0.125 0.109375 0.125 0.28125q0 0.171875 -0.125 0.28125q-0.125 0.109375 -0.390625 0.109375l-6.125 0q-0.28125 0 -0.40625 -0.109375q-0.125 -0.109375 -0.125 -0.28125q0 -0.171875 0.125 -0.28125q0.125 -0.109375 0.40625 -0.109375l2.671875 0l0 -9.9375l-2.546875 0.796875q-0.1875 0.046875 -0.265625 0.046875q-0.140625 0 -0.265625 -0.109375q-0.109375 -0.125 -0.109375 -0.28125q0 -0.140625 0.09375 -0.25q0.078125 -0.078125 0.3125 -0.15625l3.5625 -1.125zm11.401855 0l0 11.015625l2.671875 0q0.265625 0 0.390625 0.109375q0.125 0.109375 0.125 0.28125q0 0.171875 -0.125 0.28125q-0.125 0.109375 -0.390625 0.109375l-6.125 0q-0.28125 0 -0.40625 -0.109375q-0.125 -0.109375 -0.125 -0.28125q0 -0.171875 0.125 -0.28125q0.125 -0.109375 0.40625 -0.109375l2.671875 0l0 -9.9375l-2.546875 0.796875q-0.1875 0.046875 -0.265625 0.046875q-0.140625 0 -0.265625 -0.109375q-0.109375 -0.125 -0.109375 -0.28125q0 -0.140625 0.09375 -0.25q0.078125 -0.078125 0.3125 -0.15625l3.5625 -1.125zm14.589355 5.015625l0 1.921875q0 2.515625 -1.203125 3.984375q-0.9375 1.15625 -2.359375 1.15625q-0.6875 0 -1.296875 -0.28125q-0.609375 -0.265625 -1.03125 -0.765625q-0.265625 -0.296875 -0.59375 -0.96875q-0.3125 -0.6875 -0.453125 -1.25q-0.21875 -0.796875 -0.21875 -1.875l0 -1.921875q0 -2.53125 1.203125 -3.984375q0.9375 -1.15625 2.359375 -1.15625q0.703125 0 1.296875 0.28125q0.609375 0.265625 1.03125 0.765625q0.28125 0.3125 0.59375 0.984375q0.3125 0.671875 0.46875 1.234375q0.203125 0.796875 0.203125 1.875zm-0.78125 0.09375q0 -1.09375 -0.3125 -2.046875q-0.3125 -0.953125 -0.703125 -1.515625q-0.234375 -0.328125 -0.59375 -0.5625q-0.53125 -0.328125 -1.1875 -0.328125q-1.3125 0 -2.0625 1.34375q-0.734375 1.328125 -0.734375 3.109375l0 1.71875q0 1.109375 0.3125 2.0625q0.3125 0.953125 0.703125 1.53125q0.21875 0.3125 0.59375 0.546875q0.53125 0.328125 1.203125 0.328125q1.296875 0 2.03125 -1.34375q0.75 -1.34375 0.75 -3.125l0 -1.71875zm8.995605 -5.109375l0 11.015625l2.671875 0q0.265625 0 0.390625 0.109375q0.125 0.109375 0.125 0.28125q0 0.171875 -0.125 0.28125q-0.125 0.109375 -0.390625 0.109375l-6.125 0q-0.28125 0 -0.40625 -0.109375q-0.125 -0.109375 -0.125 -0.28125q0 -0.171875 0.125 -0.28125q0.125 -0.109375 0.40625 -0.109375l2.671875 0l0 -9.9375l-2.546875 0.796875q-0.1875 0.046875 -0.265625 0.046875q-0.140625 0 -0.265625 -0.109375q-0.109375 -0.125 -0.109375 -0.28125q0 -0.140625 0.09375 -0.25q0.078125 -0.078125 0.3125 -0.15625l3.5625 -1.125z" fill-rule="nonzero"/><path fill="#ff0000" d="m112.11587 175.01802l0 1.921875q0 2.515625 -1.203125 3.984375q-0.9375 1.15625 -2.359375 1.15625q-0.6875 0 -1.296875 -0.28125q-0.609375 -0.265625 -1.03125 -0.765625q-0.265625 -0.296875 -0.59375 -0.96875q-0.3125 -0.6875 -0.453125 -1.25q-0.21875 -0.796875 -0.21875 -1.875l0 -1.921875q0 -2.53125 1.203125 -3.984375q0.9375 -1.15625 2.359375 -1.15625q0.703125 0 1.296875 0.28125q0.609375 0.265625 1.03125 0.765625q0.28125 0.3125 0.59375 0.984375q0.3125 0.671875 0.46875 1.234375q0.203125 0.796875 0.203125 1.875zm-0.78125 0.09375q0 -1.09375 -0.3125 -2.046875q-0.3125 -0.953125 -0.703125 -1.515625q-0.234375 -0.328125 -0.59375 -0.5625q-0.53125 -0.328125 -1.1875 -0.328125q-1.3125 0 -2.0625 1.34375q-0.734375 1.328125 -0.734375 3.109375l0 1.71875q0 1.109375 0.3125 2.0625q0.3125 0.953125 0.703125 1.53125q0.21875 0.3125 0.59375 0.546875q0.53125 0.328125 1.203125 0.328125q1.296875 0 2.03125 -1.34375q0.75 -1.34375 0.75 -3.125l0 -1.71875zm8.995605 -5.109375l0 11.015625l2.671875 0q0.265625 0 0.390625 0.109375q0.125 0.109375 0.125 0.28125q0 0.171875 -0.125 0.28125q-0.125 0.109375 -0.390625 0.109375l-6.125 0q-0.28125 0 -0.40625 -0.109375q-0.125 -0.109375 -0.125 -0.28125q0 -0.171875 0.125 -0.28125q0.125 -0.109375 0.40625 -0.109375l2.671875 0l0 -9.9375l-2.546875 0.796875q-0.1875 0.046875 -0.265625 0.046875q-0.140625 0 -0.265625 -0.109375q-0.109375 -0.125 -0.109375 -0.28125q0 -0.140625 0.09375 -0.25q0.078125 -0.078125 0.3125 -0.15625l3.5625 -1.125zm11.401863 0l0 11.015625l2.671875 0q0.265625 0 0.390625 0.109375q0.125 0.109375 0.125 0.28125q0 0.171875 -0.125 0.28125q-0.125 0.109375 -0.390625 0.109375l-6.125 0q-0.28125763 0 -0.40625763 -0.109375q-0.125 -0.109375 -0.125 -0.28125q0 -0.171875 0.125 -0.28125q0.125 -0.109375 0.40625763 -0.109375l2.671875 0l0 -9.9375l-2.546875 0.796875q-0.1875 0.046875 -0.265625 0.046875q-0.14063263 0 -0.26563263 -0.109375q-0.109375 -0.125 -0.109375 -0.28125q0 -0.140625 0.09375 -0.25q0.078125 -0.078125 0.31250763 -0.15625l3.5625 -1.125zm14.589355 5.015625l0 1.921875q0 2.515625 -1.203125 3.984375q-0.9375 1.15625 -2.359375 1.15625q-0.6875 0 -1.296875 -0.28125q-0.609375 -0.265625 -1.03125 -0.765625q-0.265625 -0.296875 -0.59375 -0.96875q-0.3125 -0.6875 -0.453125 -1.25q-0.21875 -0.796875 -0.21875 -1.875l0 -1.921875q0 -2.53125 1.203125 -3.984375q0.9375 -1.15625 2.359375 -1.15625q0.703125 0 1.296875 0.28125q0.609375 0.265625 1.03125 0.765625q0.28125 0.3125 0.59375 0.984375q0.3125 0.671875 0.46875 1.234375q0.203125 0.796875 0.203125 1.875zm-0.78125 0.09375q0 -1.09375 -0.3125 -2.046875q-0.3125 -0.953125 -0.703125 -1.515625q-0.234375 -0.328125 -0.59375 -0.5625q-0.53125 -0.328125 -1.1875 -0.328125q-1.3125 0 -2.0625 1.34375q-0.734375 1.328125 -0.734375 3.109375l0 1.71875q0 1.109375 0.3125 2.0625q0.3125 0.953125 0.703125 1.53125q0.21875 0.3125 0.59375 0.546875q0.53125 0.328125 1.203125 0.328125q1.296875 0 2.03125 -1.34375q0.75 -1.34375 0.75 -3.125l0 -1.71875zm8.995605 -5.109375l0 11.015625l2.671875 0q0.265625 0 0.390625 0.109375q0.125 0.109375 0.125 0.28125q0 0.171875 -0.125 0.28125q-0.125 0.109375 -0.390625 0.109375l-6.125 0q-0.28125 0 -0.40625 -0.109375q-0.125 -0.109375 -0.125 -0.28125q0 -0.171875 0.125 -0.28125q0.125 -0.109375 0.40625 -0.109375l2.671875 0l0 -9.9375l-2.546875 0.796875q-0.1875 0.046875 -0.265625 0.046875q-0.140625 0 -0.265625 -0.109375q-0.109375 -0.125 -0.109375 -0.28125q0 -0.140625 0.09375 -0.25q0.078125 -0.078125 0.3125 -0.15625l3.5625 -1.125zm14.589355 5.015625l0 1.921875q0 2.515625 -1.203125 3.984375q-0.9375 1.15625 -2.359375 1.15625q-0.6875 0 -1.296875 -0.28125q-0.609375 -0.265625 -1.03125 -0.765625q-0.265625 -0.296875 -0.59375 -0.96875q-0.3125 -0.6875 -0.453125 -1.25q-0.21875 -0.796875 -0.21875 -1.875l0 -1.921875q0 -2.53125 1.203125 -3.984375q0.9375 -1.15625 2.359375 -1.15625q0.703125 0 1.296875 0.28125q0.609375 0.265625 1.03125 0.765625q0.28125 0.3125 0.59375 0.984375q0.3125 0.671875 0.46875 1.234375q0.203125 0.796875 0.203125 1.875zm-0.78125 0.09375q0 -1.09375 -0.3125 -2.046875q-0.3125 -0.953125 -0.703125 -1.515625q-0.234375 -0.328125 -0.59375 -0.5625q-0.53125 -0.328125 -1.1875 -0.328125q-1.3125 0 -2.0625 1.34375q-0.734375 1.328125 -0.734375 3.109375l0 1.71875q0 1.109375 0.3125 2.0625q0.3125 0.953125 0.703125 1.53125q0.21875 0.3125 0.59375 0.546875q0.53125 0.328125 1.203125 0.328125q1.296875 0 2.03125 -1.34375q0.75 -1.34375 0.75 -3.125l0 -1.71875zm8.995605 -5.109375l0 11.015625l2.671875 0q0.265625 0 0.390625 0.109375q0.125 0.109375 0.125 0.28125q0 0.171875 -0.125 0.28125q-0.125 0.109375 -0.390625 0.109375l-6.125 0q-0.28125 0 -0.40625 -0.109375q-0.125 -0.109375 -0.125 -0.28125q0 -0.171875 0.125 -0.28125q0.125 -0.109375 0.40625 -0.109375l2.671875 0l0 -9.9375l-2.546875 0.796875q-0.1875 0.046875 -0.265625 0.046875q-0.140625 0 -0.265625 -0.109375q-0.109375 -0.125 -0.109375 -0.28125q0 -0.140625 0.09375 -0.25q0.078125 -0.078125 0.3125 -0.15625l3.5625 -1.125zm14.589355 5.015625l0 1.921875q0 2.515625 -1.203125 3.984375q-0.9375 1.15625 -2.359375 1.15625q-0.6875 0 -1.296875 -0.28125q-0.609375 -0.265625 -1.03125 -0.765625q-0.265625 -0.296875 -0.59375 -0.96875q-0.3125 -0.6875 -0.453125 -1.25q-0.21875 -0.796875 -0.21875 -1.875l0 -1.921875q0 -2.53125 1.203125 -3.984375q0.9375 -1.15625 2.359375 -1.15625q0.703125 0 1.296875 0.28125q0.609375 0.265625 1.03125 0.765625q0.28125 0.3125 0.59375 0.984375q0.3125 0.671875 0.46875 1.234375q0.203125 0.796875 0.203125 1.875zm-0.78125 0.09375q0 -1.09375 -0.3125 -2.046875q-0.3125 -0.953125 -0.703125 -1.515625q-0.234375 -0.328125 -0.59375 -0.5625q-0.53125 -0.328125 -1.1875 -0.328125q-1.3125 0 -2.0625 1.34375q-0.734375 1.328125 -0.734375 3.109375l0 1.71875q0 1.109375 0.3125 2.0625q0.3125 0.953125 0.703125 1.53125q0.21875 0.3125 0.59375 0.546875q0.53125 0.328125 1.203125 0.328125q1.296875 0 2.03125 -1.34375q0.75 -1.34375 0.75 -3.125l0 -1.71875zm8.995605 -5.109375l0 11.015625l2.671875 0q0.265625 0 0.390625 0.109375q0.125 0.109375 0.125 0.28125q0 0.171875 -0.125 0.28125q-0.125 0.109375 -0.390625 0.109375l-6.125 0q-0.28125 0 -0.40625 -0.109375q-0.125 -0.109375 -0.125 -0.28125q0 -0.171875 0.125 -0.28125q0.125 -0.109375 0.40625 -0.109375l2.671875 0l0 -9.9375l-2.546875 0.796875q-0.1875 0.046875 -0.265625 0.046875q-0.140625 0 -0.265625 -0.109375q-0.109375 -0.125 -0.109375 -0.28125q0 -0.140625 0.09375 -0.25q0.078125 -0.078125 0.3125 -0.15625l3.5625 -1.125zm14.589355 5.015625l0 1.921875q0 2.515625 -1.203125 3.984375q-0.9375 1.15625 -2.359375 1.15625q-0.6875 0 -1.296875 -0.28125q-0.609375 -0.265625 -1.03125 -0.765625q-0.265625 -0.296875 -0.59375 -0.96875q-0.3125 -0.6875 -0.453125 -1.25q-0.21875 -0.796875 -0.21875 -1.875l0 -1.921875q0 -2.53125 1.203125 -3.984375q0.9375 -1.15625 2.359375 -1.15625q0.703125 0 1.296875 0.28125q0.609375 0.265625 1.03125 0.765625q0.28125 0.3125 0.59375 0.984375q0.3125 0.671875 0.46875 1.234375q0.203125 0.796875 0.203125 1.875zm-0.78125 0.09375q0 -1.09375 -0.3125 -2.046875q-0.3125 -0.953125 -0.703125 -1.515625q-0.234375 -0.328125 -0.59375 -0.5625q-0.53125 -0.328125 -1.1875 -0.328125q-1.3125 0 -2.0625 1.34375q-0.734375 1.328125 -0.734375 3.109375l0 1.71875q0 1.109375 0.3125 2.0625q0.3125 0.953125 0.703125 1.53125q0.21875 0.3125 0.59375 0.546875q0.53125 0.328125 1.203125 0.328125q1.296875 0 2.03125 -1.34375q0.75 -1.34375 0.75 -3.125l0 -1.71875zm8.995605 -5.109375l0 11.015625l2.671875 0q0.265625 0 0.390625 0.109375q0.125 0.109375 0.125 0.28125q0 0.171875 -0.125 0.28125q-0.125 0.109375 -0.390625 0.109375l-6.125 0q-0.28125 0 -0.40625 -0.109375q-0.125 -0.109375 -0.125 -0.28125q0 -0.171875 0.125 -0.28125q0.125 -0.109375 0.40625 -0.109375l2.671875 0l0 -9.9375l-2.546875 0.796875q-0.1875 0.046875 -0.265625 0.046875q-0.140625 0 -0.265625 -0.109375q-0.109375 -0.125 -0.109375 -0.28125q0 -0.140625 0.09375 -0.25q0.078125 -0.078125 0.3125 -0.15625l3.5625 -1.125zm11.401855 0l0 11.015625l2.671875 0q0.265625 0 0.390625 0.109375q0.125 0.109375 0.125 0.28125q0 0.171875 -0.125 0.28125q-0.125 0.109375 -0.390625 0.109375l-6.125 0q-0.28125 0 -0.40625 -0.109375q-0.125 -0.109375 -0.125 -0.28125q0 -0.171875 0.125 -0.28125q0.125 -0.109375 0.40625 -0.109375l2.671875 0l0 -9.9375l-2.546875 0.796875q-0.1875 0.046875 -0.265625 0.046875q-0.140625 0 -0.265625 -0.109375q-0.109375 -0.125 -0.109375 -0.28125q0 -0.140625 0.09375 -0.25q0.078125 -0.078125 0.3125 -0.15625l3.5625 -1.125z" fill-rule="nonzero"/><path fill="#000000" d="m8.369639 103.59929l8.492486 0l0 14.434883l-8.492486 0z" fill-rule="evenodd"/><g filter="url(#shadowFilter-p.4)"><use xlink:href="#p.4" transform="matrix(1.0 0.0 0.0 1.0 0.0 2.0)"/></g><defs><filter id="shadowFilter-p.4" filterUnits="userSpaceOnUse"><feGaussianBlur in="SourceAlpha" stdDeviation="2.0" result="blur"/><feComponentTransfer in="blur" color-interpolation-filters="sRGB"><feFuncR type="linear" slope="0" intercept="0.0"/><feFuncG type="linear" slope="0" intercept="0.0"/><feFuncB type="linear" slope="0" intercept="0.0"/><feFuncA type="linear" slope="0.5" intercept="0"/></feComponentTransfer></filter></defs><g id="p.4"><path fill="#000000" d="m3.5511086 114.35205l50.35666 0l0 36.774323l-50.35666 0z" fill-rule="evenodd"/></g><g filter="url(#shadowFilter-p.5)"><use xlink:href="#p.5" transform="matrix(1.0 0.0 0.0 1.0 0.0 2.0)"/></g><defs><filter id="shadowFilter-p.5" filterUnits="userSpaceOnUse"><feGaussianBlur in="SourceAlpha" stdDeviation="2.0" result="blur"/><feComponentTransfer in="blur" color-interpolation-filters="sRGB"><feFuncR type="linear" slope="0" intercept="0.0"/><feFuncG type="linear" slope="0" intercept="0.0"/><feFuncB type="linear" slope="0" intercept="0.0"/><feFuncA type="linear" slope="0.5" intercept="0"/></feComponentTransfer></filter></defs><g id="p.5"><path fill="#000000" d="m8.364876 103.600105l0 0c0 -9.374176 9.117525 -16.97345 20.364563 -16.97345c11.247036 0 20.364563 7.5992737 20.364563 16.97345l-8.486725 0l0 0c0 -4.687088 -5.31789 -8.486725 -11.877838 -8.486725c-6.559948 0 -11.877836 3.7996368 -11.877836 8.486725z" fill-rule="evenodd"/></g><path fill="#000000" d="m40.60877 103.31826l8.48225 0l0 11.363358l-8.48225 0z" fill-rule="evenodd"/><path fill="#eeeeee" d="m24.488312 128.68225l0 0c0 -2.342308 1.8988171 -4.241127 4.241127 -4.241127l0 0c1.1248169 0 2.2035637 0.44683838 2.998928 1.2422028c0.7953644 0.7953644 1.242199 1.8741074 1.242199 2.9989243l0 0c0 2.3423157 -1.8988171 4.2411346 -4.241127 4.2411346l0 0c-2.34231 0 -4.241127 -1.898819 -4.241127 -4.2411346z" fill-rule="evenodd"/><path fill="#eeeeee" d="m22.931444 141.0373l2.8408375 -11.363358l5.9143143 0l2.8408394 11.363358z" fill-rule="evenodd"/></g></svg>