<svg version="1.1" viewBox="0.0 0.0 212.9448818897638 192.89238845144357" fill="none" stroke="none" stroke-linecap="square" stroke-miterlimit="10" xmlns:xlink="http://www.w3.org/1999/xlink" xmlns="http://www.w3.org/2000/svg"><clipPath id="p.0"><path d="m0 0l212.94489 0l0 192.8924l-212.94489 0l0 -192.8924z" clip-rule="nonzero"/></clipPath><g clip-path="url(#p.0)"><path fill="#000000" fill-opacity="0.0" d="m0 0l212.94489 0l0 192.8924l-212.94489 0z" fill-rule="evenodd"/><path fill="#fff9e7" d="m3.7220917 42.780308l0 0c0 -12.61054 10.222862 -22.833403 22.8334 -22.833403l11.416702 0l0 0l51.375156 0l97.04195 0c6.0558014 0 11.863571 2.405655 16.14566 6.687748c4.282089 4.282095 6.687744 10.089861 6.687744 16.145655l0 57.0835l0 0l0 34.2501l0 0c0 12.61055 -10.222855 22.833405 -22.833405 22.833405l-97.04195 0l-25.686893 17.125061l-25.688263 -17.125061l-11.416702 0l0 0c-12.6105385 0 -22.8334 -10.222855 -22.8334 -22.833405l0 0l0 -34.2501l0 0z" fill-rule="evenodd"/><path stroke="#595959" stroke-width="1.0" stroke-linejoin="round" stroke-linecap="butt" d="m3.7220917 42.780308l0 0c0 -12.61054 10.222862 -22.833403 22.8334 -22.833403l11.416702 0l0 0l51.375156 0l97.04195 0c6.0558014 0 11.863571 2.405655 16.14566 6.687748c4.282089 4.282095 6.687744 10.089861 6.687744 16.145655l0 57.0835l0 0l0 34.2501l0 0c0 12.61055 -10.222855 22.833405 -22.833405 22.833405l-97.04195 0l-25.686893 17.125061l-25.688263 -17.125061l-11.416702 0l0 0c-12.6105385 0 -22.8334 -10.222855 -22.8334 -22.833405l0 0l0 -34.2501l0 0z" fill-rule="evenodd"/><path fill="#000000" fill-opacity="0.0" d="m34.322704 69.47895c-4.58634 0 -8.304306 -0.61963654 -8.304306 -1.383995l0 -16.911701c0 -0.7643585 -3.7179642 -1.383995 -8.304306 -1.383995l0 0c4.586342 0 8.304306 -0.61963654 8.304306 -1.383995l0 -16.911701l0 0c0 -0.7643604 3.717966 -1.383997 8.304306 -1.383997z" fill-rule="evenodd"/><path fill="#000000" fill-opacity="0.0" d="m34.322704 69.47895c-4.58634 0 -8.304306 -0.61963654 -8.304306 -1.383995l0 -16.911701c0 -0.7643585 -3.7179642 -1.383995 -8.304306 -1.383995l0 0c4.586342 0 8.304306 -0.61963654 8.304306 -1.383995l0 -16.911701l0 0c0 -0.7643604 3.717966 -1.383997 8.304306 -1.383997" fill-rule="evenodd"/><path stroke="#595959" stroke-width="2.0" stroke-linejoin="round" stroke-linecap="butt" d="m34.322704 69.47895c-4.58634 0 -8.304306 -0.61963654 -8.304306 -1.383995l0 -16.911701c0 -0.7643585 -3.7179642 -1.383995 -8.304306 -1.383995l0 0c4.586342 0 8.304306 -0.61963654 8.304306 -1.383995l0 -16.911701l0 0c0 -0.7643604 3.717966 -1.383997 8.304306 -1.383997" fill-rule="evenodd"/><path fill="#000000" fill-opacity="0.0" d="m117.40709 108.34256c4.586342 0 8.304306 0.61963654 8.304306 1.383995l0 16.911697c0 0.76436615 3.7179718 1.383995 8.304306 1.383995l0 0c-4.586334 0 -8.304306 0.61964417 -8.304306 1.3840027l0 16.911697l0 0c0 0.7643585 -3.7179642 1.3840027 -8.304306 1.3840027z" fill-rule="evenodd"/><path fill="#000000" fill-opacity="0.0" d="m117.40709 108.34256c4.586342 0 8.304306 0.61963654 8.304306 1.383995l0 16.911697c0 0.76436615 3.7179718 1.383995 8.304306 1.383995l0 0c-4.586334 0 -8.304306 0.61964417 -8.304306 1.3840027l0 16.911697l0 0c0 0.7643585 -3.7179642 1.3840027 -8.304306 1.3840027" fill-rule="evenodd"/><path stroke="#595959" stroke-width="2.0" stroke-linejoin="round" stroke-linecap="butt" d="m117.40709 108.34256c4.586342 0 8.304306 0.61963654 8.304306 1.383995l0 16.911697c0 0.76436615 3.7179718 1.383995 8.304306 1.383995l0 0c-4.586334 0 -8.304306 0.61964417 -8.304306 1.3840027l0 16.911697l0 0c0 0.7643585 -3.7179642 1.3840027 -8.304306 1.3840027" fill-rule="evenodd"/><path fill="#93c47d" d="m47.44709 40.934906l55.527306 0l0 18.729446l-55.527306 0z" fill-rule="evenodd"/><path fill="#93c47d" d="m23.835592 79.79622l44.592613 0l0 18.729446l-44.592613 0z" fill-rule="evenodd"/><path fill="#93c47d" d="m23.835592 118.657524l86.56861 0l0 18.729454l-86.56861 0z" fill-rule="evenodd"/><path fill="#93c47d" d="m110.411095 40.934906l30.600609 0l0 18.729446l-30.600609 0z" fill-rule="evenodd"/><path fill="#93c47d" d="m76.74284 79.79622l78.250534 0l0 18.729446l-78.250534 0z" fill-rule="evenodd"/><path fill="#93c47d" d="m162.00659 79.79622l30.600616 0l0 18.729446l-30.600616 0z" fill-rule="evenodd"/></g></svg>