<svg version="1.1" viewBox="0.0 0.0 745.0603674540682 170.60367454068242" fill="none" stroke="none" stroke-linecap="square" stroke-miterlimit="10" xmlns:xlink="http://www.w3.org/1999/xlink" xmlns="http://www.w3.org/2000/svg"><clipPath id="p.0"><path d="m0 0l745.06036 0l0 170.60367l-745.06036 0l0 -170.60367z" clip-rule="nonzero"/></clipPath><g clip-path="url(#p.0)"><path fill="#000000" fill-opacity="0.0" d="m0 0l745.06036 0l0 170.60367l-745.06036 0z" fill-rule="evenodd"/><path fill="#000000" fill-opacity="0.0" d="m144.60104 73.96326l173.13385 0" fill-rule="evenodd"/><path stroke="#ff0000" stroke-width="3.0" stroke-linejoin="round" stroke-linecap="butt" d="m144.60104 73.96326l162.8526 0" fill-rule="evenodd"/><path fill="#ff0000" stroke="#ff0000" stroke-width="3.0" stroke-linecap="butt" d="m307.45364 73.96326l-3.3737488 3.3737488l9.269318 -3.3737488l-9.269318 -3.3737564z" fill-rule="evenodd"/><path fill="#ead1dc" d="m277.02756 50.089237l-45.85826 -35.11811l-45.858276 35.11811z" fill-rule="evenodd"/><path stroke="#595959" stroke-width="1.0" stroke-linejoin="round" stroke-linecap="butt" d="m277.02756 50.089237l-45.85826 -35.11811l-45.858276 35.11811z" fill-rule="evenodd"/><defs><linearGradient id="p.1" gradientUnits="userSpaceOnUse" gradientTransform="matrix(-5.926081626735985 0.0 0.0 -5.926081626735985 0.0 0.0)" spreadMethod="pad" x1="-46.747172331424935" y1="-14.443082256115773" x2="-46.74719309244441" y2="-8.517000629416154"><stop offset="0.0" stop-color="#f2f2f2"/><stop offset="1.0" stop-color="#a6a6a6"/></linearGradient></defs><path fill="url(#p.1)" d="m277.02756 50.472443l-45.85826 35.11811l-45.858276 -35.11811z" fill-rule="evenodd"/><path stroke="#595959" stroke-width="1.0" stroke-linejoin="round" stroke-linecap="butt" d="m277.02756 50.472443l-45.85826 35.11811l-45.858276 -35.11811z" fill-rule="evenodd"/><path fill="#f3f3f3" d="m198.34863 41.998966l65.64151 0l0 47.675762l-65.64151 0z" fill-rule="evenodd"/><path stroke="#595959" stroke-width="1.0" stroke-linejoin="round" stroke-linecap="butt" d="m198.34863 41.998966l65.64151 0l0 47.675762l-65.64151 0z" fill-rule="evenodd"/><path fill="#f3f3f3" d="m198.34863 89.67285l32.820755 -30.363716l32.820755 30.363716z" fill-rule="evenodd"/><path stroke="#595959" stroke-width="1.0" stroke-linejoin="round" stroke-linecap="butt" d="m198.34863 89.67285l32.820755 -30.363716l32.820755 30.363716z" fill-rule="evenodd"/><path fill="#f3f3f3" d="m263.99014 42.273224l-32.820755 25.134033l-32.820755 -25.134033z" fill-rule="evenodd"/><path stroke="#595959" stroke-width="1.0" stroke-linejoin="round" stroke-linecap="butt" d="m263.99014 42.273224l-32.820755 25.134033l-32.820755 -25.134033z" fill-rule="evenodd"/><path fill="#ead1dc" d="m277.02756 116.95538l-35.118103 -33.55906l35.118103 -33.559055z" fill-rule="evenodd"/><path stroke="#595959" stroke-width="1.0" stroke-linejoin="round" stroke-linecap="butt" d="m277.02756 116.95538l-35.118103 -33.55906l35.118103 -33.559055z" fill-rule="evenodd"/><path fill="#ead1dc" d="m185.31102 116.95538l35.11812 -33.55906l-35.11812 -33.559055z" fill-rule="evenodd"/><path stroke="#595959" stroke-width="1.0" stroke-linejoin="round" stroke-linecap="butt" d="m185.31102 116.95538l35.11812 -33.55906l-35.11812 -33.559055z" fill-rule="evenodd"/><path fill="#ead1dc" d="m185.31102 116.70079l45.858276 -42.4252l45.85826 42.4252z" fill-rule="evenodd"/><path stroke="#595959" stroke-width="1.0" stroke-linejoin="round" stroke-linecap="butt" d="m185.31102 116.70079l45.858276 -42.4252l45.85826 42.4252z" fill-rule="evenodd"/><path fill="#c9daf8" d="m4.8845143 73.96326l0 0c0 -38.581657 31.276611 -69.85827 69.85827 -69.85827l0 0c18.527565 0 36.296288 7.360047 49.397255 20.461014c13.10096 13.1009655 20.461006 30.869692 20.461006 49.397255l0 0c0 38.581657 -31.276604 69.85826 -69.85826 69.85826l0 0c-38.581657 0 -69.85827 -31.276604 -69.85827 -69.85826z" fill-rule="evenodd"/><path stroke="#595959" stroke-width="1.0" stroke-linejoin="round" stroke-linecap="butt" d="m4.8845143 73.96326l0 0c0 -38.581657 31.276611 -69.85827 69.85827 -69.85827l0 0c18.527565 0 36.296288 7.360047 49.397255 20.461014c13.10096 13.1009655 20.461006 30.869692 20.461006 49.397255l0 0c0 38.581657 -31.276604 69.85826 -69.85826 69.85826l0 0c-38.581657 0 -69.85827 -31.276604 -69.85827 -69.85826z" fill-rule="evenodd"/><path fill="#000000" d="m28.812744 80.15325l2.671875 -0.421875q0.21875 1.609375 1.234375 2.46875q1.03125 0.84375 2.875 0.84375q1.859375 0 2.75 -0.75q0.90625 -0.765625 0.90625 -1.78125q0 -0.90625 -0.796875 -1.4375q-0.546875 -0.359375 -2.75 -0.90625q-2.96875 -0.75 -4.109375 -1.296875q-1.140625 -0.546875 -1.734375 -1.515625q-0.59375 -0.96875 -0.59375 -2.125q0 -1.0625 0.484375 -1.96875q0.484375 -0.90625 1.328125 -1.515625q0.625 -0.453125 1.703125 -0.765625q1.09375 -0.328125 2.34375 -0.328125q1.859375 0 3.265625 0.546875q1.421875 0.53125 2.09375 1.453125q0.6875 0.90625 0.9375 2.453125l-2.640625 0.359375q-0.171875 -1.21875 -1.03125 -1.90625q-0.859375 -0.703125 -2.4375 -0.703125q-1.859375 0 -2.65625 0.625q-0.78125 0.609375 -0.78125 1.4375q0 0.515625 0.328125 0.9375q0.328125 0.4375 1.03125 0.71875q0.40625 0.15625 2.375 0.6875q2.859375 0.765625 3.984375 1.25q1.140625 0.484375 1.78125 1.421875q0.640625 0.921875 0.640625 2.296875q0 1.34375 -0.78125 2.546875q-0.78125 1.1875 -2.265625 1.84375q-1.484375 0.640625 -3.359375 0.640625q-3.09375 0 -4.71875 -1.28125q-1.625 -1.296875 -2.078125 -3.828125zm27.296875 -0.375l2.78125 0.34375q-0.65625 2.453125 -2.4375 3.796875q-1.78125 1.34375 -4.546875 1.34375q-3.5 0 -5.546875 -2.140625q-2.03125 -2.15625 -2.03125 -6.03125q0 -4.015625 2.0625 -6.21875q2.0625 -2.21875 5.359375 -2.21875q3.1875 0 5.203125 2.171875q2.03125 2.15625 2.03125 6.09375q0 0.25 -0.015625 0.71875l-11.859375 0q0.15625 2.625 1.484375 4.015625q1.328125 1.390625 3.328125 1.390625q1.46875 0 2.515625 -0.765625q1.0625 -0.78125 1.671875 -2.5zm-8.84375 -4.34375l8.875 0q-0.1875 -2.015625 -1.015625 -3.015625q-1.296875 -1.5625 -3.34375 -1.5625q-1.859375 0 -3.125 1.25q-1.265625 1.234375 -1.390625 3.328125zm15.00267 9.46875l0 -15.890625l2.4375 0l0 2.25q1.75 -2.609375 5.046875 -2.609375q1.4375 0 2.640625 0.515625q1.21875 0.515625 1.8125 1.359375q0.59375 0.828125 0.84375 1.984375q0.140625 0.75 0.140625 2.609375l0 9.78125l-2.6875 0l0 -9.671875q0 -1.640625 -0.328125 -2.453125q-0.3125 -0.828125 -1.109375 -1.3125q-0.796875 -0.484375 -1.875 -0.484375q-1.71875 0 -2.96875 1.09375q-1.25 1.09375 -1.25 4.140625l0 8.6875l-2.703125 0zm27.362045 0l0 -2.0q-1.5 2.359375 -4.4375 2.359375q-1.90625 0 -3.5 -1.046875q-1.59375 -1.046875 -2.46875 -2.921875q-0.875 -1.890625 -0.875 -4.328125q0 -2.375 0.796875 -4.3125q0.796875 -1.9375 2.375 -2.96875q1.59375 -1.03125 3.546875 -1.03125q1.4375 0 2.5625 0.609375q1.125 0.59375 1.828125 1.5625l0 -7.859375l2.671875 0l0 21.9375l-2.5 0zm-8.515625 -7.9375q0 3.0625 1.28125 4.578125q1.296875 1.5 3.046875 1.5q1.765625 0 3.0 -1.4375q1.234375 -1.453125 1.234375 -4.40625q0 -3.265625 -1.265625 -4.796875q-1.25 -1.53125 -3.09375 -1.53125q-1.78125 0 -3.0 1.46875q-1.203125 1.46875 -1.203125 4.625zm26.143295 2.8125l2.78125 0.34375q-0.65625 2.453125 -2.4375 3.796875q-1.78125 1.34375 -4.546875 1.34375q-3.5 0 -5.546875 -2.140625q-2.03125 -2.15625 -2.03125 -6.03125q0 -4.015625 2.0625 -6.21875q2.0625 -2.21875 5.359375 -2.21875q3.1875 0 5.203125 2.171875q2.03125 2.15625 2.03125 6.09375q0 0.25 -0.015625 0.71875l-11.859375 0q0.15625 2.625 1.484375 4.015625q1.328125 1.390625 3.328125 1.390625q1.46875 0 2.515625 -0.765625q1.0625 -0.78125 1.671875 -2.5zm-8.84375 -4.34375l8.875 0q-0.1875 -2.015625 -1.015625 -3.015625q-1.296875 -1.5625 -3.34375 -1.5625q-1.859375 0 -3.125 1.25q-1.265625 1.234375 -1.390625 3.328125zm14.97142 9.46875l0 -15.890625l2.4375 0l0 2.40625q0.921875 -1.6875 1.703125 -2.21875q0.796875 -0.546875 1.734375 -0.546875q1.359375 0 2.765625 0.859375l-0.921875 2.5q-0.984375 -0.578125 -1.984375 -0.578125q-0.875 0 -1.578125 0.53125q-0.703125 0.53125 -1.0 1.46875q-0.453125 1.4375 -0.453125 3.140625l0 8.328125l-2.703125 0z" fill-rule="nonzero"/><defs><linearGradient id="p.2" gradientUnits="userSpaceOnUse" gradientTransform="matrix(11.82017493242257 0.0 0.0 11.82017493242257 0.0 0.0)" spreadMethod="pad" x1="26.881505248845475" y1="12.167461406616829" x2="38.70168018126804" y2="12.167461406616829"><stop offset="0.0" stop-color="#c9daf8"/><stop offset="1.0" stop-color="#fff2cc"/></linearGradient></defs><path fill="url(#p.2)" d="m317.74408 73.96326l0 0c0 -38.581657 31.276642 -69.85827 69.85828 -69.85827l0 0c18.527557 0 36.296295 7.360047 49.397247 20.461014c13.100983 13.1009655 20.46103 30.869692 20.46103 49.397255l0 0c0 38.581657 -31.276611 69.85826 -69.85828 69.85826l0 0c-38.581635 0 -69.85828 -31.276604 -69.85828 -69.85826z" fill-rule="evenodd"/><path stroke="#595959" stroke-width="1.0" stroke-linejoin="round" stroke-linecap="butt" d="m317.74408 73.96326l0 0c0 -38.581657 31.276642 -69.85827 69.85828 -69.85827l0 0c18.527557 0 36.296295 7.360047 49.397247 20.461014c13.100983 13.1009655 20.46103 30.869692 20.46103 49.397255l0 0c0 38.581657 -31.276611 69.85826 -69.85828 69.85826l0 0c-38.581635 0 -69.85828 -31.276604 -69.85828 -69.85826z" fill-rule="evenodd"/><path fill="#000000" fill-opacity="0.0" d="m317.7362 22.971128l139.71655 0l0 101.98425l-139.71655 0z" fill-rule="evenodd"/><path fill="#000000" d="m329.97412 84.90325l0 -15.890625l2.421875 0l0 2.21875q0.734375 -1.15625 1.984375 -1.859375q1.25 -0.71875 2.828125 -0.71875q1.765625 0 2.890625 0.734375q1.140625 0.71875 1.59375 2.046875q1.890625 -2.78125 4.921875 -2.78125q2.359375 0 3.625 1.3125q1.28125 1.296875 1.28125 4.03125l0 10.90625l-2.6875 0l0 -10.015625q0 -1.609375 -0.265625 -2.3125q-0.25 -0.71875 -0.9375 -1.15625q-0.6875 -0.4375 -1.625 -0.4375q-1.671875 0 -2.78125 1.125q-1.109375 1.109375 -1.109375 3.5625l0 9.234375l-2.6875 0l0 -10.328125q0 -1.796875 -0.65625 -2.6875q-0.65625 -0.90625 -2.15625 -0.90625q-1.140625 0 -2.109375 0.609375q-0.96875 0.59375 -1.40625 1.75q-0.421875 1.140625 -0.421875 3.3125l0 8.25l-2.703125 0zm36.42752 -5.125l2.78125 0.34375q-0.65625 2.453125 -2.4375 3.796875q-1.78125 1.34375 -4.546875 1.34375q-3.5 0 -5.546875 -2.140625q-2.03125 -2.15625 -2.03125 -6.03125q0 -4.015625 2.0625 -6.21875q2.0625 -2.21875 5.359375 -2.21875q3.1875 0 5.203125 2.171875q2.03125 2.15625 2.03125 6.09375q0 0.25 -0.015625 0.71875l-11.859375 0q0.15625 2.625 1.484375 4.015625q1.328125 1.390625 3.328125 1.390625q1.46875 0 2.515625 -0.765625q1.0625 -0.78125 1.671875 -2.5zm-8.84375 -4.34375l8.875 0q-0.1875 -2.015625 -1.015625 -3.015625q-1.296875 -1.5625 -3.34375 -1.5625q-1.859375 0 -3.125 1.25q-1.265625 1.234375 -1.390625 3.328125zm25.315186 9.46875l0 -2.0q-1.5 2.359375 -4.4375 2.359375q-1.90625 0 -3.5 -1.046875q-1.59375 -1.046875 -2.46875 -2.921875q-0.875 -1.890625 -0.875 -4.328125q0 -2.375 0.796875 -4.3125q0.796875 -1.9375 2.375 -2.96875q1.59375 -1.03125 3.546875 -1.03125q1.4375 0 2.5625 0.609375q1.125 0.59375 1.828125 1.5625l0 -7.859371l2.671875 0l0 21.937496l-2.5 0zm-8.515625 -7.9375q0 3.0625 1.28125 4.578125q1.296875 1.5 3.046875 1.5q1.765625 0 3.0 -1.4375q1.234375 -1.453125 1.234375 -4.40625q0 -3.265625 -1.265625 -4.796875q-1.25 -1.53125 -3.09375 -1.53125q-1.78125 0 -3.0 1.46875q-1.203125 1.46875 -1.203125 4.625zm15.26828 -10.90625l0 -3.0937462l2.703125 0l0 3.0937462l-2.703125 0zm0 18.84375l0 -15.890625l2.703125 0l0 15.890625l-2.703125 0zm17.170227 -1.953125q-1.5 1.265625 -2.890625 1.796875q-1.375 0.515625 -2.953125 0.515625q-2.625 0 -4.03125 -1.28125q-1.40625 -1.28125 -1.40625 -3.265625q0 -1.171875 0.53125 -2.140625q0.53125 -0.96875 1.390625 -1.546875q0.859375 -0.578125 1.9375 -0.875q0.796875 -0.21875 2.390625 -0.40625q3.265625 -0.390625 4.8125 -0.9375q0.015625 -0.546875 0.015625 -0.703125q0 -1.640625 -0.765625 -2.3125q-1.03125 -0.921875 -3.0625 -0.921875q-1.90625 0 -2.8125 0.671875q-0.90625 0.671875 -1.34375 2.359375l-2.625 -0.359375q0.359375 -1.6875 1.171875 -2.734375q0.828125 -1.046875 2.375 -1.59375q1.5625 -0.5625 3.609375 -0.5625q2.046875 0 3.3125 0.484375q1.28125 0.46875 1.875 1.203125q0.59375 0.71875 0.84375 1.828125q0.125 0.6875 0.125 2.484375l0 3.59375q0 3.75 0.171875 4.75q0.171875 1.0 0.6875 1.90625l-2.8125 0q-0.421875 -0.84375 -0.546875 -1.953125zm-0.21875 -6.03125q-1.46875 0.609375 -4.40625 1.03125q-1.65625 0.234375 -2.34375 0.53125q-0.6875 0.296875 -1.0625 0.875q-0.375 0.578125 -0.375 1.28125q0 1.078125 0.8125 1.796875q0.8125 0.71875 2.390625 0.71875q1.546875 0 2.765625 -0.671875q1.21875 -0.6875 1.78125 -1.875q0.4375 -0.90625 0.4375 -2.6875l0 -1.0zm12.783905 5.578125l0.390625 2.375q-1.140625 0.234375 -2.046875 0.234375q-1.453125 0 -2.265625 -0.453125q-0.8125 -0.46875 -1.140625 -1.21875q-0.328125 -0.765625 -0.328125 -3.1875l0 -9.140625l-1.984375 0l0 -2.09375l1.984375 0l0 -3.9375l2.671875 -1.6249962l0 5.562496l2.71875 0l0 2.09375l-2.71875 0l0 9.296875q0 1.140625 0.140625 1.484375q0.15625 0.328125 0.46875 0.515625q0.328125 0.1875 0.921875 0.1875q0.453125 0 1.1875 -0.09375zm1.6266785 -5.546875q0 -4.40625 2.453125 -6.53125q2.0625 -1.765625 5.0 -1.765625q3.28125 0 5.359375 2.15625q2.078125 2.140625 2.078125 5.921875q0 3.0625 -0.921875 4.828125q-0.90625 1.75 -2.671875 2.734375q-1.765625 0.96875 -3.84375 0.96875q-3.328125 0 -5.390625 -2.140625q-2.0625 -2.140625 -2.0625 -6.171875zm2.765625 0q0 3.0625 1.328125 4.578125q1.34375 1.515625 3.359375 1.515625q2.015625 0 3.34375 -1.515625q1.328125 -1.53125 1.328125 -4.65625q0 -2.953125 -1.34375 -4.46875q-1.328125 -1.53125 -3.328125 -1.53125q-2.015625 0 -3.359375 1.515625q-1.328125 1.515625 -1.328125 4.5625zm15.252655 7.953125l0 -15.890625l2.4375 0l0 2.40625q0.921875 -1.6875 1.703125 -2.21875q0.796875 -0.546875 1.734375 -0.546875q1.359375 0 2.765625 0.859375l-0.921875 2.5q-0.984375 -0.578125 -1.984375 -0.578125q-0.875 0 -1.578125 0.53125q-0.703125 0.53125 -1.0 1.46875q-0.453125 1.4375 -0.453125 3.140625l0 8.328125l-2.703125 0z" fill-rule="nonzero"/><path fill="#fff2cc" d="m593.78217 73.96326l0 0c0 -38.581657 31.276611 -69.85827 69.85828 -69.85827l0 0c18.527527 0 36.296265 7.360047 49.397217 20.461014c13.100952 13.1009655 20.460999 30.869692 20.460999 49.397255l0 0c0 38.581657 -31.276611 69.85826 -69.858215 69.85826l0 0c-38.581665 0 -69.85828 -31.276604 -69.85828 -69.85826z" fill-rule="evenodd"/><path stroke="#595959" stroke-width="1.0" stroke-linejoin="round" stroke-linecap="butt" d="m593.78217 73.96326l0 0c0 -38.581657 31.276611 -69.85827 69.85828 -69.85827l0 0c18.527527 0 36.296265 7.360047 49.397217 20.461014c13.100952 13.1009655 20.460999 30.869692 20.460999 49.397255l0 0c0 38.581657 -31.276611 69.85826 -69.858215 69.85826l0 0c-38.581665 0 -69.85828 -31.276604 -69.85828 -69.85826z" fill-rule="evenodd"/><path fill="#000000" fill-opacity="0.0" d="m593.78217 22.971128l139.71649 0l0 101.98425l-139.71649 0z" fill-rule="evenodd"/><path fill="#000000" d="m607.6878 84.90325l0 -15.890625l2.4375 0l0 2.40625q0.921875 -1.6875 1.703125 -2.21875q0.796875 -0.546875 1.734375 -0.546875q1.359375 0 2.765625 0.859375l-0.921875 2.5q-0.984375 -0.578125 -1.984375 -0.578125q-0.875 0 -1.578125 0.53125q-0.703125 0.53125 -1.0 1.46875q-0.453125 1.4375 -0.453125 3.140625l0 8.328125l-2.703125 0zm21.130615 -5.125l2.78125 0.34375q-0.65625 2.453125 -2.4375 3.796875q-1.78125 1.34375 -4.546875 1.34375q-3.5 0 -5.546875 -2.140625q-2.03125 -2.15625 -2.03125 -6.03125q0 -4.015625 2.0625 -6.21875q2.0625 -2.21875 5.359375 -2.21875q3.1875 0 5.203125 2.171875q2.03125 2.15625 2.03125 6.09375q0 0.25 -0.015625 0.71875l-11.859375 0q0.15625 2.625 1.484375 4.015625q1.328125 1.390625 3.328125 1.390625q1.46875 0 2.515625 -0.765625q1.0625 -0.78125 1.671875 -2.5zm-8.84375 -4.34375l8.875 0q-0.1875 -2.015625 -1.015625 -3.015625q-1.296875 -1.5625 -3.34375 -1.5625q-1.859375 0 -3.125 1.25q-1.265625 1.234375 -1.390625 3.328125zm25.377686 3.640625l2.65625 0.34375q-0.4375 2.75 -2.234375 4.296875q-1.78125 1.546875 -4.390625 1.546875q-3.25 0 -5.234375 -2.125q-1.984375 -2.140625 -1.984375 -6.125q0 -2.578125 0.84375 -4.5q0.859375 -1.9375 2.59375 -2.890625q1.75 -0.96875 3.796875 -0.96875q2.59375 0 4.234375 1.3125q1.65625 1.296875 2.125 3.703125l-2.625 0.40625q-0.375 -1.59375 -1.328125 -2.40625q-0.953125 -0.8125 -2.296875 -0.8125q-2.03125 0 -3.3125 1.46875q-1.265625 1.453125 -1.265625 4.609375q0 3.203125 1.21875 4.65625q1.234375 1.453125 3.203125 1.453125q1.59375 0 2.65625 -0.96875q1.0625 -0.96875 1.34375 -3.0zm4.96875 -13.015625l0 -3.0937462l2.703125 0l0 3.0937462l-2.703125 0zm0 18.84375l0 -15.890625l2.703125 0l0 15.890625l-2.703125 0zm6.795227 6.0937576l0 -21.984383l2.453125 0l0 2.0625q0.875 -1.21875 1.96875 -1.8125q1.09375 -0.609375 2.65625 -0.609375q2.03125 0 3.578125 1.046875q1.5625 1.046875 2.359375 2.953125q0.796875 1.90625 0.796875 4.1875q0 2.4375 -0.875 4.390625q-0.875 1.953125 -2.546875 3.0q-1.671875 1.03125 -3.515625 1.03125q-1.34375 0 -2.421875 -0.5625q-1.0625 -0.578125 -1.75 -1.4375l0 7.7343826l-2.703125 0zm2.4375 -13.953133q0 3.0625 1.25 4.53125q1.25 1.46875 3.015625 1.46875q1.796875 0 3.0625 -1.515625q1.28125 -1.515625 1.28125 -4.703125q0 -3.046875 -1.25 -4.546875q-1.25 -1.515625 -2.984375 -1.515625q-1.71875 0 -3.046875 1.609375q-1.328125 1.609375 -1.328125 4.671875zm14.6276245 -10.984375l0 -3.0937462l2.703125 0l0 3.0937462l-2.703125 0zm0 18.84375l0 -15.890625l2.703125 0l0 15.890625l-2.703125 0zm17.685852 -5.125l2.78125 0.34375q-0.65625 2.453125 -2.4375 3.796875q-1.78125 1.34375 -4.546875 1.34375q-3.5 0 -5.546875 -2.140625q-2.03125 -2.15625 -2.03125 -6.03125q0 -4.015625 2.0625 -6.21875q2.0625 -2.21875 5.359375 -2.21875q3.1875 0 5.203125 2.171875q2.03125 2.15625 2.03125 6.09375q0 0.25 -0.015625 0.71875l-11.859375 0q0.15625 2.625 1.484375 4.015625q1.328125 1.390625 3.328125 1.390625q1.46875 0 2.515625 -0.765625q1.0625 -0.78125 1.671875 -2.5zm-8.84375 -4.34375l8.875 0q-0.1875 -2.015625 -1.015625 -3.015625q-1.296875 -1.5625 -3.34375 -1.5625q-1.859375 0 -3.125 1.25q-1.265625 1.234375 -1.390625 3.328125zm15.002686 9.46875l0 -15.890625l2.4375 0l0 2.25q1.75 -2.609375 5.046875 -2.609375q1.4375 0 2.640625 0.515625q1.21875 0.515625 1.8125 1.359375q0.59375 0.828125 0.84375 1.984375q0.140625 0.75 0.140625 2.609375l0 9.78125l-2.6875 0l0 -9.671875q0 -1.640625 -0.328125 -2.453125q-0.3125 -0.828125 -1.109375 -1.3125q-0.796875 -0.484375 -1.875 -0.484375q-1.71875 0 -2.96875 1.09375q-1.25 1.09375 -1.25 4.140625l0 8.6875l-2.703125 0zm22.940186 -2.40625l0.390625 2.375q-1.140625 0.234375 -2.046875 0.234375q-1.453125 0 -2.265625 -0.453125q-0.8125 -0.46875 -1.140625 -1.21875q-0.328125 -0.765625 -0.328125 -3.1875l0 -9.140625l-1.984375 0l0 -2.09375l1.984375 0l0 -3.9375l2.671875 -1.6249962l0 5.562496l2.71875 0l0 2.09375l-2.71875 0l0 9.296875q0 1.140625 0.140625 1.484375q0.15625 0.328125 0.46875 0.515625q0.328125 0.1875 0.921875 0.1875q0.453125 0 1.1875 -0.09375z" fill-rule="nonzero"/><path fill="#000000" fill-opacity="0.0" d="m169.34251 123.22835l123.65355 0l0 27.370071l-123.65355 0z" fill-rule="evenodd"/><path fill="#000000" d="m196.4503 142.89835l0 6.46875l3.421875 0q0.28125 0 0.390625 0.109375q0.125 0.109375 0.125 0.28125q0 0.171875 -0.125 0.28125q-0.109375 0.109375 -0.390625 0.109375l-6.09375 0q-0.28125 0 -0.40625 -0.109375q-0.109375 -0.109375 -0.109375 -0.28125q0 -0.171875 0.109375 -0.28125q0.125 -0.109375 0.40625 -0.109375l1.875 0l0 -6.46875l-1.6875 0q-0.265625 0 -0.390625 -0.109375q-0.125 -0.109375 -0.125 -0.28125q0 -0.171875 0.125 -0.28125q0.125 -0.109375 0.390625 -0.109375l1.6875 0l0 -1.1875q0 -0.984375 0.796875 -1.703125q0.8125 -0.71875 2.125 -0.71875q1.109375 0 2.359375 0.203125q0.46875 0.078125 0.5625 0.1875q0.09375 0.09375 0.09375 0.25q0 0.171875 -0.109375 0.28125q-0.109375 0.109375 -0.296875 0.109375q-0.0625 0 -0.25 -0.03125q-1.390625 -0.21875 -2.359375 -0.21875q-1.015625 0 -1.578125 0.5q-0.546875 0.5 -0.546875 1.140625l0 1.1875l3.640625 0q0.28125 0 0.40625 0.109375q0.125 0.109375 0.125 0.28125q0 0.171875 -0.125 0.28125q-0.125 0.109375 -0.40625 0.109375l-3.640625 0zm16.276855 3.25q0 1.78125 -1.28125 3.046875q-1.28125 1.265625 -3.078125 1.265625q-1.8125 0 -3.09375 -1.265625q-1.265625 -1.28125 -1.265625 -3.046875q0 -1.78125 1.265625 -3.046875q1.28125 -1.265625 3.09375 -1.265625q1.796875 0 3.078125 1.265625q1.28125 1.25 1.28125 3.046875zm-0.796875 0q0 -1.46875 -1.046875 -2.5q-1.03125 -1.03125 -2.515625 -1.03125q-1.484375 0 -2.53125 1.046875q-1.046875 1.03125 -1.046875 2.484375q0 1.453125 1.046875 2.5q1.046875 1.03125 2.53125 1.03125q1.484375 0 2.515625 -1.03125q1.046875 -1.046875 1.046875 -2.5zm6.9018555 -4.03125l0 1.96875q1.53125 -1.375 2.28125 -1.765625q0.75 -0.40625 1.390625 -0.40625q0.703125 0 1.296875 0.46875q0.59375 0.46875 0.59375 0.71875q0 0.171875 -0.109375 0.296875q-0.109375 0.109375 -0.296875 0.109375q-0.09375 0 -0.15625 -0.03125q-0.0625 -0.03125 -0.234375 -0.21875q-0.328125 -0.3125 -0.578125 -0.4375q-0.234375 -0.125 -0.46875 -0.125q-0.5 0 -1.21875 0.40625q-0.71875 0.40625 -2.5 2.0l0 4.265625l3.453125 0q0.28125 0 0.40625 0.109375q0.125 0.109375 0.125 0.28125q0 0.171875 -0.125 0.28125q-0.125 0.109375 -0.40625 0.109375l-6.109375 0q-0.28125 0 -0.40625 -0.109375q-0.109375 -0.109375 -0.109375 -0.265625q0 -0.15625 0.109375 -0.265625q0.109375 -0.109375 0.40625 -0.109375l1.875 0l0 -6.5l-1.4375 0q-0.28125 0 -0.40625 -0.109375q-0.109375 -0.109375 -0.109375 -0.28125q0 -0.171875 0.109375 -0.28125q0.125 -0.109375 0.40625 -0.109375l2.21875 0zm15.02684 8.03125l-0.96873474 0.015625l-1.71875 -5.015625l-1.703125 5.015625l-0.96875 -0.015625l-1.609375 -7.25l-0.375 0q-0.28125 0 -0.40625 -0.109375q-0.125 -0.109375 -0.125 -0.28125q0 -0.171875 0.125 -0.28125q0.125 -0.109375 0.40625 -0.109375l2.140625 0q0.265625 0 0.390625 0.109375q0.125 0.109375 0.125 0.28125q0 0.171875 -0.125 0.28125q-0.125 0.109375 -0.390625 0.109375l-1.0 0l1.390625 6.1875l1.65625 -4.9375l0.921875 0l1.7187347 4.9375l1.3125 -6.1875l-0.984375 0q-0.265625 0 -0.39060974 -0.109375q-0.125 -0.109375 -0.125 -0.28125q0 -0.171875 0.109375 -0.28125q0.12498474 -0.109375 0.40623474 -0.109375l2.140625 0q0.28125 0 0.40625 0.109375q0.125 0.109375 0.125 0.28125q0 0.171875 -0.125 0.28125q-0.125 0.109375 -0.40625 0.109375l-0.375 0l-1.578125 7.25zm10.94873 0l0 -1.125q-1.6875 1.4375 -3.625 1.4375q-1.40625 0 -2.1875 -0.703125q-0.78125 -0.71875 -0.78125 -1.75q0 -1.140625 1.03125 -1.984375q1.046875 -0.84375 3.03125 -0.84375q0.546875 0 1.171875 0.078125q0.625 0.0625 1.359375 0.21875l0 -1.265625q0 -0.640625 -0.59375 -1.109375q-0.59375 -0.484375 -1.78125 -0.484375q-0.90625 0 -2.546875 0.53125q-0.296875 0.09375 -0.375 0.09375q-0.15625 0 -0.265625 -0.109375q-0.109375 -0.109375 -0.109375 -0.28125q0 -0.15625 0.09375 -0.25q0.140625 -0.140625 1.0625 -0.375q1.4375 -0.390625 2.1875 -0.390625q1.46875 0 2.296875 0.734375q0.828125 0.71875 0.828125 1.640625l0 5.15625l1.03125 0q0.296875 0 0.40625 0.109375q0.125 0.109375 0.125 0.28125q0 0.171875 -0.125 0.28125q-0.109375 0.109375 -0.40625 0.109375l-1.828125 0zm0 -3.875q-0.546875 -0.15625 -1.15625 -0.234375q-0.609375 -0.078125 -1.28125 -0.078125q-1.703125 0 -2.65625 0.734375q-0.734375 0.546875 -0.734375 1.3125q0 0.703125 0.546875 1.1875q0.5625 0.484375 1.625 0.484375q1.0 0 1.859375 -0.40625q0.875 -0.40625 1.796875 -1.28125l0 -1.71875zm8.22998 -4.15625l0 1.96875q1.53125 -1.375 2.28125 -1.765625q0.75 -0.40625 1.390625 -0.40625q0.703125 0 1.296875 0.46875q0.59375 0.46875 0.59375 0.71875q0 0.171875 -0.109375 0.296875q-0.109375 0.109375 -0.296875 0.109375q-0.09375 0 -0.15625 -0.03125q-0.0625 -0.03125 -0.234375 -0.21875q-0.328125 -0.3125 -0.578125 -0.4375q-0.234375 -0.125 -0.46875 -0.125q-0.5 0 -1.21875 0.40625q-0.71875 0.40625 -2.5 2.0l0 4.265625l3.453125 0q0.28125 0 0.40625 0.109375q0.125 0.109375 0.125 0.28125q0 0.171875 -0.125 0.28125q-0.125 0.109375 -0.40625 0.109375l-6.109375 0q-0.28125 0 -0.40625 -0.109375q-0.109375 -0.109375 -0.109375 -0.265625q0 -0.15625 0.109375 -0.265625q0.109375 -0.109375 0.40625 -0.109375l1.875 0l0 -6.5l-1.4375 0q-0.28125 0 -0.40625 -0.109375q-0.109375 -0.109375 -0.109375 -0.28125q0 -0.171875 0.109375 -0.28125q0.125 -0.109375 0.40625 -0.109375l2.21875 0zm16.151855 -3.609375l0 10.859375l1.046875 0q0.28125 0 0.40625 0.109375q0.125 0.109375 0.125 0.28125q0 0.171875 -0.125 0.28125q-0.125 0.109375 -0.40625 0.109375l-1.828125 0l0 -1.546875q-1.359375 1.859375 -3.453125 1.859375q-1.046875 0 -2.015625 -0.5625q-0.96875 -0.5625 -1.53125 -1.59375q-0.5625 -1.046875 -0.5625 -2.15625q0 -1.109375 0.5625 -2.140625q0.5625 -1.046875 1.53125 -1.609375q0.96875 -0.5625 2.03125 -0.5625q2.046875 0 3.4375 1.859375l0 -4.40625l-1.046875 0q-0.28125 0 -0.40625 -0.109375q-0.125 -0.109375 -0.125 -0.28125q0 -0.171875 0.125 -0.28125q0.125 -0.109375 0.40625 -0.109375l1.828125 0zm-0.78125 7.640625q0 -1.484375 -1.015625 -2.5q-1.0 -1.03125 -2.375 -1.03125q-1.390625 0 -2.390625 1.03125q-1.0 1.015625 -1.0 2.5q0 1.46875 1.0 2.5q1.0 1.03125 2.390625 1.03125q1.375 0 2.375 -1.03125q1.015625 -1.03125 1.015625 -2.5z" fill-rule="nonzero"/><path fill="#000000" fill-opacity="0.0" d="m457.45276 73.96326l136.31494 0" fill-rule="evenodd"/><path stroke="#ff0000" stroke-width="3.0" stroke-linejoin="round" stroke-linecap="butt" d="m457.45276 73.96326l126.03369 0" fill-rule="evenodd"/><path fill="#ff0000" stroke="#ff0000" stroke-width="3.0" stroke-linecap="butt" d="m583.48645 73.96326l-3.3737183 3.3737488l9.269287 -3.3737488l-9.269287 -3.3737564z" fill-rule="evenodd"/><path fill="#f3f3f3" d="m494.36957 51.26398l62.50482 0l0 45.397556l-62.50482 0z" fill-rule="evenodd"/><path stroke="#595959" stroke-width="1.0" stroke-linejoin="round" stroke-linecap="butt" d="m494.36957 51.26398l62.50482 0l0 45.397556l-62.50482 0z" fill-rule="evenodd"/><path fill="#f3f3f3" d="m494.36957 96.65975l31.25238 -28.912773l31.252441 28.912773z" fill-rule="evenodd"/><path stroke="#595959" stroke-width="1.0" stroke-linejoin="round" stroke-linecap="butt" d="m494.36957 96.65975l31.25238 -28.912773l31.252441 28.912773z" fill-rule="evenodd"/><path fill="#f3f3f3" d="m556.8744 51.52513l-31.252441 23.932991l-31.25238 -23.932991z" fill-rule="evenodd"/><path stroke="#595959" stroke-width="1.0" stroke-linejoin="round" stroke-linecap="butt" d="m556.8744 51.52513l-31.252441 23.932991l-31.25238 -23.932991z" fill-rule="evenodd"/></g></svg>